<svg width="241" height="82" viewBox="0 0 241 82" fill="none" xmlns="http://www.w3.org/2000/svg">
<g filter="url(#filter0_d_157_9)">
<mask id="path-1-outside-1_157_9" maskUnits="userSpaceOnUse" x="7" y="6" width="134" height="33" fill="black">
<rect fill="white" x="7" y="6" width="134" height="33"/>
<path d="M24.9773 15C24.7273 14.2348 24.3977 13.5492 23.9886 12.9432C23.5871 12.3295 23.1061 11.8068 22.5455 11.375C21.9924 10.9432 21.3636 10.6136 20.6591 10.3864C19.9545 10.1591 19.1818 10.0455 18.3409 10.0455C16.9621 10.0455 15.7083 10.4015 14.5795 11.1136C13.4508 11.8258 12.553 12.875 11.8864 14.2614C11.2197 15.6477 10.8864 17.3485 10.8864 19.3636C10.8864 21.3788 11.2235 23.0795 11.8977 24.4659C12.572 25.8523 13.4848 26.9015 14.6364 27.6136C15.7879 28.3258 17.0833 28.6818 18.5227 28.6818C19.8561 28.6818 21.0303 28.3977 22.0455 27.8295C23.0682 27.2538 23.8636 26.4432 24.4318 25.3977C25.0076 24.3447 25.2955 23.1061 25.2955 21.6818L26.1591 21.8636H19.1591V19.3636H28.0227V21.8636C28.0227 23.7803 27.6136 25.447 26.7955 26.8636C25.9848 28.2803 24.8636 29.3788 23.4318 30.1591C22.0076 30.9318 20.3712 31.3182 18.5227 31.3182C16.4621 31.3182 14.6515 30.8333 13.0909 29.8636C11.5379 28.8939 10.3258 27.5152 9.45455 25.7273C8.59091 23.9394 8.15909 21.8182 8.15909 19.3636C8.15909 17.5227 8.4053 15.8674 8.89773 14.3977C9.39773 12.9205 10.1023 11.6629 11.0114 10.625C11.9205 9.58712 12.9962 8.79167 14.2386 8.23864C15.4811 7.68561 16.8485 7.40909 18.3409 7.40909C19.5682 7.40909 20.7121 7.5947 21.7727 7.96591C22.8409 8.32954 23.7917 8.84848 24.625 9.52273C25.4659 10.1894 26.1667 10.9886 26.7273 11.9205C27.2879 12.8447 27.6742 13.8712 27.8864 15H24.9773ZM32.4858 31V13.5455H35.0767V16.1818H35.2585C35.5767 15.3182 36.1525 14.6174 36.9858 14.0795C37.8191 13.5417 38.7585 13.2727 39.804 13.2727C40.0009 13.2727 40.2472 13.2765 40.5426 13.2841C40.8381 13.2917 41.0616 13.303 41.2131 13.3182V16.0455C41.1222 16.0227 40.9138 15.9886 40.5881 15.9432C40.2699 15.8902 39.9328 15.8636 39.5767 15.8636C38.7282 15.8636 37.9706 16.0417 37.304 16.3977C36.6449 16.7462 36.1222 17.2311 35.7358 17.8523C35.357 18.4659 35.1676 19.1667 35.1676 19.9545V31H32.4858ZM49.5284 31.4091C48.4223 31.4091 47.4186 31.2008 46.517 30.7841C45.6155 30.3598 44.8996 29.75 44.3693 28.9545C43.839 28.1515 43.5739 27.1818 43.5739 26.0455C43.5739 25.0455 43.7708 24.2348 44.1648 23.6136C44.5587 22.9848 45.0852 22.4924 45.7443 22.1364C46.4034 21.7803 47.1307 21.5152 47.9261 21.3409C48.7292 21.1591 49.536 21.0152 50.3466 20.9091C51.4072 20.7727 52.267 20.6705 52.9261 20.6023C53.5928 20.5265 54.0777 20.4015 54.3807 20.2273C54.6913 20.053 54.8466 19.75 54.8466 19.3182V19.2273C54.8466 18.1061 54.5398 17.2348 53.9261 16.6136C53.3201 15.9924 52.3996 15.6818 51.1648 15.6818C49.8845 15.6818 48.8807 15.9621 48.1534 16.5227C47.4261 17.0833 46.9148 17.6818 46.6193 18.3182L44.0739 17.4091C44.5284 16.3485 45.1345 15.5227 45.892 14.9318C46.6572 14.3333 47.4905 13.9167 48.392 13.6818C49.3011 13.4394 50.1951 13.3182 51.0739 13.3182C51.6345 13.3182 52.2784 13.3864 53.0057 13.5227C53.7405 13.6515 54.4489 13.9205 55.1307 14.3295C55.8201 14.7386 56.392 15.3561 56.8466 16.1818C57.3011 17.0076 57.5284 18.1136 57.5284 19.5V31H54.8466V28.6364H54.7102C54.5284 29.0152 54.2254 29.4205 53.8011 29.8523C53.3769 30.2841 52.8125 30.6515 52.108 30.9545C51.4034 31.2576 50.5436 31.4091 49.5284 31.4091ZM49.9375 29C50.9981 29 51.892 28.7917 52.6193 28.375C53.3542 27.9583 53.9072 27.4205 54.2784 26.7614C54.6572 26.1023 54.8466 25.4091 54.8466 24.6818V22.2273C54.733 22.3636 54.483 22.4886 54.0966 22.6023C53.7178 22.7083 53.2784 22.803 52.7784 22.8864C52.286 22.9621 51.8049 23.0303 51.3352 23.0909C50.8731 23.1439 50.4981 23.1894 50.2102 23.2273C49.5133 23.3182 48.8617 23.4659 48.2557 23.6705C47.6572 23.8674 47.1723 24.1667 46.8011 24.5682C46.4375 24.9621 46.2557 25.5 46.2557 26.1818C46.2557 27.1136 46.6004 27.8182 47.2898 28.2955C47.9867 28.7652 48.8693 29 49.9375 29ZM62.4233 37.5455V13.5455H65.0142V16.3182H65.3324C65.5294 16.0152 65.8021 15.6288 66.1506 15.1591C66.5066 14.6818 67.0142 14.2576 67.6733 13.8864C68.34 13.5076 69.2415 13.3182 70.3778 13.3182C71.8475 13.3182 73.143 13.6856 74.2642 14.4205C75.3854 15.1553 76.2604 16.197 76.8892 17.5455C77.518 18.8939 77.8324 20.4848 77.8324 22.3182C77.8324 24.1667 77.518 25.7689 76.8892 27.125C76.2604 28.4735 75.3892 29.5189 74.2756 30.2614C73.1619 30.9962 71.8778 31.3636 70.4233 31.3636C69.3021 31.3636 68.4044 31.178 67.7301 30.8068C67.0559 30.428 66.5369 30 66.1733 29.5227C65.8097 29.0379 65.5294 28.6364 65.3324 28.3182H65.1051V37.5455H62.4233ZM65.0597 22.2727C65.0597 23.5909 65.2528 24.7538 65.6392 25.7614C66.0256 26.7614 66.59 27.5455 67.3324 28.1136C68.0748 28.6742 68.9839 28.9545 70.0597 28.9545C71.1809 28.9545 72.1165 28.6591 72.8665 28.0682C73.6241 27.4697 74.1922 26.6667 74.571 25.6591C74.9574 24.6439 75.1506 23.5152 75.1506 22.2727C75.1506 21.0455 74.9612 19.9394 74.5824 18.9545C74.2112 17.9621 73.6468 17.178 72.8892 16.6023C72.1392 16.0189 71.196 15.7273 70.0597 15.7273C68.9688 15.7273 68.0521 16.0038 67.3097 16.5568C66.5672 17.1023 66.0066 17.8674 65.6278 18.8523C65.2491 19.8295 65.0597 20.9697 65.0597 22.2727ZM84.6051 20.5V31H81.9233V7.72727H84.6051V16.2727H84.8324C85.2415 15.3712 85.8551 14.6553 86.6733 14.125C87.4991 13.5871 88.5975 13.3182 89.9688 13.3182C91.1581 13.3182 92.1998 13.5568 93.0938 14.0341C93.9877 14.5038 94.6809 15.2273 95.1733 16.2045C95.6733 17.1742 95.9233 18.4091 95.9233 19.9091V31H93.2415V20.0909C93.2415 18.7045 92.8816 17.6326 92.1619 16.875C91.4498 16.1098 90.4612 15.7273 89.196 15.7273C88.3172 15.7273 87.5294 15.9129 86.8324 16.2841C86.143 16.6553 85.5975 17.197 85.196 17.9091C84.8021 18.6212 84.6051 19.4848 84.6051 20.5ZM109.648 23.7273H112.739L115.33 27.1364L116.011 28.0455L119.875 33.1818H116.784L114.239 29.7727L113.602 28.9091L109.648 23.7273ZM120.83 19.3636C120.83 21.8182 120.386 23.9394 119.5 25.7273C118.614 27.5152 117.398 28.8939 115.852 29.8636C114.307 30.8333 112.542 31.3182 110.557 31.3182C108.572 31.3182 106.807 30.8333 105.261 29.8636C103.716 28.8939 102.5 27.5152 101.614 25.7273C100.727 23.9394 100.284 21.8182 100.284 19.3636C100.284 16.9091 100.727 14.7879 101.614 13C102.5 11.2121 103.716 9.83333 105.261 8.86364C106.807 7.89394 108.572 7.40909 110.557 7.40909C112.542 7.40909 114.307 7.89394 115.852 8.86364C117.398 9.83333 118.614 11.2121 119.5 13C120.386 14.7879 120.83 16.9091 120.83 19.3636ZM118.102 19.3636C118.102 17.3485 117.765 15.6477 117.091 14.2614C116.424 12.875 115.519 11.8258 114.375 11.1136C113.239 10.4015 111.966 10.0455 110.557 10.0455C109.148 10.0455 107.871 10.4015 106.727 11.1136C105.591 11.8258 104.686 12.875 104.011 14.2614C103.345 15.6477 103.011 17.3485 103.011 19.3636C103.011 21.3788 103.345 23.0795 104.011 24.4659C104.686 25.8523 105.591 26.9015 106.727 27.6136C107.871 28.3258 109.148 28.6818 110.557 28.6818C111.966 28.6818 113.239 28.3258 114.375 27.6136C115.519 26.9015 116.424 25.8523 117.091 24.4659C117.765 23.0795 118.102 21.3788 118.102 19.3636ZM125.568 31V7.72727H128.386V28.5H139.205V31H125.568Z"/>
</mask>
<path d="M24.9773 15C24.7273 14.2348 24.3977 13.5492 23.9886 12.9432C23.5871 12.3295 23.1061 11.8068 22.5455 11.375C21.9924 10.9432 21.3636 10.6136 20.6591 10.3864C19.9545 10.1591 19.1818 10.0455 18.3409 10.0455C16.9621 10.0455 15.7083 10.4015 14.5795 11.1136C13.4508 11.8258 12.553 12.875 11.8864 14.2614C11.2197 15.6477 10.8864 17.3485 10.8864 19.3636C10.8864 21.3788 11.2235 23.0795 11.8977 24.4659C12.572 25.8523 13.4848 26.9015 14.6364 27.6136C15.7879 28.3258 17.0833 28.6818 18.5227 28.6818C19.8561 28.6818 21.0303 28.3977 22.0455 27.8295C23.0682 27.2538 23.8636 26.4432 24.4318 25.3977C25.0076 24.3447 25.2955 23.1061 25.2955 21.6818L26.1591 21.8636H19.1591V19.3636H28.0227V21.8636C28.0227 23.7803 27.6136 25.447 26.7955 26.8636C25.9848 28.2803 24.8636 29.3788 23.4318 30.1591C22.0076 30.9318 20.3712 31.3182 18.5227 31.3182C16.4621 31.3182 14.6515 30.8333 13.0909 29.8636C11.5379 28.8939 10.3258 27.5152 9.45455 25.7273C8.59091 23.9394 8.15909 21.8182 8.15909 19.3636C8.15909 17.5227 8.4053 15.8674 8.89773 14.3977C9.39773 12.9205 10.1023 11.6629 11.0114 10.625C11.9205 9.58712 12.9962 8.79167 14.2386 8.23864C15.4811 7.68561 16.8485 7.40909 18.3409 7.40909C19.5682 7.40909 20.7121 7.5947 21.7727 7.96591C22.8409 8.32954 23.7917 8.84848 24.625 9.52273C25.4659 10.1894 26.1667 10.9886 26.7273 11.9205C27.2879 12.8447 27.6742 13.8712 27.8864 15H24.9773ZM32.4858 31V13.5455H35.0767V16.1818H35.2585C35.5767 15.3182 36.1525 14.6174 36.9858 14.0795C37.8191 13.5417 38.7585 13.2727 39.804 13.2727C40.0009 13.2727 40.2472 13.2765 40.5426 13.2841C40.8381 13.2917 41.0616 13.303 41.2131 13.3182V16.0455C41.1222 16.0227 40.9138 15.9886 40.5881 15.9432C40.2699 15.8902 39.9328 15.8636 39.5767 15.8636C38.7282 15.8636 37.9706 16.0417 37.304 16.3977C36.6449 16.7462 36.1222 17.2311 35.7358 17.8523C35.357 18.4659 35.1676 19.1667 35.1676 19.9545V31H32.4858ZM49.5284 31.4091C48.4223 31.4091 47.4186 31.2008 46.517 30.7841C45.6155 30.3598 44.8996 29.75 44.3693 28.9545C43.839 28.1515 43.5739 27.1818 43.5739 26.0455C43.5739 25.0455 43.7708 24.2348 44.1648 23.6136C44.5587 22.9848 45.0852 22.4924 45.7443 22.1364C46.4034 21.7803 47.1307 21.5152 47.9261 21.3409C48.7292 21.1591 49.536 21.0152 50.3466 20.9091C51.4072 20.7727 52.267 20.6705 52.9261 20.6023C53.5928 20.5265 54.0777 20.4015 54.3807 20.2273C54.6913 20.053 54.8466 19.75 54.8466 19.3182V19.2273C54.8466 18.1061 54.5398 17.2348 53.9261 16.6136C53.3201 15.9924 52.3996 15.6818 51.1648 15.6818C49.8845 15.6818 48.8807 15.9621 48.1534 16.5227C47.4261 17.0833 46.9148 17.6818 46.6193 18.3182L44.0739 17.4091C44.5284 16.3485 45.1345 15.5227 45.892 14.9318C46.6572 14.3333 47.4905 13.9167 48.392 13.6818C49.3011 13.4394 50.1951 13.3182 51.0739 13.3182C51.6345 13.3182 52.2784 13.3864 53.0057 13.5227C53.7405 13.6515 54.4489 13.9205 55.1307 14.3295C55.8201 14.7386 56.392 15.3561 56.8466 16.1818C57.3011 17.0076 57.5284 18.1136 57.5284 19.5V31H54.8466V28.6364H54.7102C54.5284 29.0152 54.2254 29.4205 53.8011 29.8523C53.3769 30.2841 52.8125 30.6515 52.108 30.9545C51.4034 31.2576 50.5436 31.4091 49.5284 31.4091ZM49.9375 29C50.9981 29 51.892 28.7917 52.6193 28.375C53.3542 27.9583 53.9072 27.4205 54.2784 26.7614C54.6572 26.1023 54.8466 25.4091 54.8466 24.6818V22.2273C54.733 22.3636 54.483 22.4886 54.0966 22.6023C53.7178 22.7083 53.2784 22.803 52.7784 22.8864C52.286 22.9621 51.8049 23.0303 51.3352 23.0909C50.8731 23.1439 50.4981 23.1894 50.2102 23.2273C49.5133 23.3182 48.8617 23.4659 48.2557 23.6705C47.6572 23.8674 47.1723 24.1667 46.8011 24.5682C46.4375 24.9621 46.2557 25.5 46.2557 26.1818C46.2557 27.1136 46.6004 27.8182 47.2898 28.2955C47.9867 28.7652 48.8693 29 49.9375 29ZM62.4233 37.5455V13.5455H65.0142V16.3182H65.3324C65.5294 16.0152 65.8021 15.6288 66.1506 15.1591C66.5066 14.6818 67.0142 14.2576 67.6733 13.8864C68.34 13.5076 69.2415 13.3182 70.3778 13.3182C71.8475 13.3182 73.143 13.6856 74.2642 14.4205C75.3854 15.1553 76.2604 16.197 76.8892 17.5455C77.518 18.8939 77.8324 20.4848 77.8324 22.3182C77.8324 24.1667 77.518 25.7689 76.8892 27.125C76.2604 28.4735 75.3892 29.5189 74.2756 30.2614C73.1619 30.9962 71.8778 31.3636 70.4233 31.3636C69.3021 31.3636 68.4044 31.178 67.7301 30.8068C67.0559 30.428 66.5369 30 66.1733 29.5227C65.8097 29.0379 65.5294 28.6364 65.3324 28.3182H65.1051V37.5455H62.4233ZM65.0597 22.2727C65.0597 23.5909 65.2528 24.7538 65.6392 25.7614C66.0256 26.7614 66.59 27.5455 67.3324 28.1136C68.0748 28.6742 68.9839 28.9545 70.0597 28.9545C71.1809 28.9545 72.1165 28.6591 72.8665 28.0682C73.6241 27.4697 74.1922 26.6667 74.571 25.6591C74.9574 24.6439 75.1506 23.5152 75.1506 22.2727C75.1506 21.0455 74.9612 19.9394 74.5824 18.9545C74.2112 17.9621 73.6468 17.178 72.8892 16.6023C72.1392 16.0189 71.196 15.7273 70.0597 15.7273C68.9688 15.7273 68.0521 16.0038 67.3097 16.5568C66.5672 17.1023 66.0066 17.8674 65.6278 18.8523C65.2491 19.8295 65.0597 20.9697 65.0597 22.2727ZM84.6051 20.5V31H81.9233V7.72727H84.6051V16.2727H84.8324C85.2415 15.3712 85.8551 14.6553 86.6733 14.125C87.4991 13.5871 88.5975 13.3182 89.9688 13.3182C91.1581 13.3182 92.1998 13.5568 93.0938 14.0341C93.9877 14.5038 94.6809 15.2273 95.1733 16.2045C95.6733 17.1742 95.9233 18.4091 95.9233 19.9091V31H93.2415V20.0909C93.2415 18.7045 92.8816 17.6326 92.1619 16.875C91.4498 16.1098 90.4612 15.7273 89.196 15.7273C88.3172 15.7273 87.5294 15.9129 86.8324 16.2841C86.143 16.6553 85.5975 17.197 85.196 17.9091C84.8021 18.6212 84.6051 19.4848 84.6051 20.5ZM109.648 23.7273H112.739L115.33 27.1364L116.011 28.0455L119.875 33.1818H116.784L114.239 29.7727L113.602 28.9091L109.648 23.7273ZM120.83 19.3636C120.83 21.8182 120.386 23.9394 119.5 25.7273C118.614 27.5152 117.398 28.8939 115.852 29.8636C114.307 30.8333 112.542 31.3182 110.557 31.3182C108.572 31.3182 106.807 30.8333 105.261 29.8636C103.716 28.8939 102.5 27.5152 101.614 25.7273C100.727 23.9394 100.284 21.8182 100.284 19.3636C100.284 16.9091 100.727 14.7879 101.614 13C102.5 11.2121 103.716 9.83333 105.261 8.86364C106.807 7.89394 108.572 7.40909 110.557 7.40909C112.542 7.40909 114.307 7.89394 115.852 8.86364C117.398 9.83333 118.614 11.2121 119.5 13C120.386 14.7879 120.83 16.9091 120.83 19.3636ZM118.102 19.3636C118.102 17.3485 117.765 15.6477 117.091 14.2614C116.424 12.875 115.519 11.8258 114.375 11.1136C113.239 10.4015 111.966 10.0455 110.557 10.0455C109.148 10.0455 107.871 10.4015 106.727 11.1136C105.591 11.8258 104.686 12.875 104.011 14.2614C103.345 15.6477 103.011 17.3485 103.011 19.3636C103.011 21.3788 103.345 23.0795 104.011 24.4659C104.686 25.8523 105.591 26.9015 106.727 27.6136C107.871 28.3258 109.148 28.6818 110.557 28.6818C111.966 28.6818 113.239 28.3258 114.375 27.6136C115.519 26.9015 116.424 25.8523 117.091 24.4659C117.765 23.0795 118.102 21.3788 118.102 19.3636ZM125.568 31V7.72727H128.386V28.5H139.205V31H125.568Z" fill="white"/>
<path d="M24.9773 15L24.0267 15.3106L24.252 16H24.9773V15ZM23.9886 12.9432L23.1518 13.4907L23.1558 13.4967L23.1598 13.5027L23.9886 12.9432ZM22.5455 11.375L21.93 12.1632L21.9352 12.1672L22.5455 11.375ZM20.6591 10.3864L20.9661 9.43465L20.9661 9.43465L20.6591 10.3864ZM11.8864 14.2614L12.7876 14.6947L12.7876 14.6947L11.8864 14.2614ZM11.8977 24.4659L10.9984 24.9033L10.9984 24.9033L11.8977 24.4659ZM14.6364 27.6136L14.1104 28.4641L14.6364 27.6136ZM22.0455 27.8295L22.5339 28.7022L22.536 28.7009L22.0455 27.8295ZM24.4318 25.3977L23.5544 24.918L23.5532 24.9202L24.4318 25.3977ZM25.2955 21.6818L25.5015 20.7033L24.2955 20.4494V21.6818H25.2955ZM26.1591 21.8636V22.8636L26.3651 20.8851L26.1591 21.8636ZM19.1591 21.8636H18.1591V22.8636H19.1591V21.8636ZM19.1591 19.3636V18.3636H18.1591V19.3636H19.1591ZM28.0227 19.3636H29.0227V18.3636H28.0227V19.3636ZM26.7955 26.8636L25.9295 26.3635L25.9275 26.367L26.7955 26.8636ZM23.4318 30.1591L23.9087 31.0381L23.9103 31.0372L23.4318 30.1591ZM13.0909 29.8636L12.5613 30.7119L12.5631 30.713L13.0909 29.8636ZM9.45455 25.7273L8.55409 26.1622L8.55559 26.1653L9.45455 25.7273ZM8.89773 14.3977L7.95051 14.0771L7.94953 14.08L8.89773 14.3977ZM11.0114 10.625L11.7636 11.2839L11.7636 11.2839L11.0114 10.625ZM14.2386 8.23864L13.832 7.32505L14.2386 8.23864ZM21.7727 7.96591L21.4424 8.9098L21.4505 8.91256L21.7727 7.96591ZM24.625 9.52273L23.996 10.3002L24.0038 10.3063L24.625 9.52273ZM26.7273 11.9205L25.8704 12.436L25.8723 12.4391L26.7273 11.9205ZM27.8864 15V16H29.0918L28.8692 14.8153L27.8864 15ZM24.9773 15L25.9278 14.6894C25.6519 13.8449 25.2834 13.074 24.8175 12.3837L23.9886 12.9432L23.1598 13.5027C23.512 14.0245 23.8027 14.6248 24.0267 15.3106L24.9773 15ZM23.9886 12.9432L24.8254 12.3957C24.3649 11.6918 23.8082 11.0854 23.1557 10.5828L22.5455 11.375L21.9352 12.1672C22.4039 12.5283 22.8094 12.9673 23.1518 13.4907L23.9886 12.9432ZM22.5455 11.375L23.1609 10.5868C22.5104 10.0789 21.776 9.69593 20.9661 9.43465L20.6591 10.3864L20.3521 11.3381C20.9512 11.5313 21.4744 11.8074 21.93 12.1632L22.5455 11.375ZM20.6591 10.3864L20.9661 9.43465C20.1499 9.17137 19.2721 9.04545 18.3409 9.04545V10.0455V11.0455C19.0915 11.0455 19.7592 11.1468 20.3521 11.3381L20.6591 10.3864ZM18.3409 10.0455V9.04545C16.7798 9.04545 15.34 9.45154 14.046 10.2679L14.5795 11.1136L15.1131 11.9594C16.0767 11.3515 17.1444 11.0455 18.3409 11.0455V10.0455ZM14.5795 11.1136L14.046 10.2679C12.7353 11.0948 11.7205 12.2987 10.9851 13.828L11.8864 14.2614L12.7876 14.6947C13.3855 13.4513 14.1662 12.5568 15.1131 11.9594L14.5795 11.1136ZM11.8864 14.2614L10.9851 13.828C10.2366 15.3847 9.88636 17.2431 9.88636 19.3636H10.8864H11.8864C11.8864 17.4539 12.2028 15.9107 12.7876 14.6947L11.8864 14.2614ZM10.8864 19.3636H9.88636C9.88636 21.4856 10.2408 23.3454 10.9984 24.9033L11.8977 24.4659L12.797 24.0286C12.2062 22.8137 11.8864 21.272 11.8864 19.3636H10.8864ZM11.8977 24.4659L10.9984 24.9033C11.7437 26.4357 12.7764 27.6392 14.1104 28.4641L14.6364 27.6136L15.1623 26.7631C14.1933 26.1639 13.4002 25.2688 12.797 24.0286L11.8977 24.4659ZM14.6364 27.6136L14.1104 28.4641C15.43 29.2802 16.9098 29.6818 18.5227 29.6818V28.6818V27.6818C17.2569 27.6818 16.1457 27.3713 15.1623 26.7631L14.6364 27.6136ZM18.5227 28.6818V29.6818C20.0018 29.6818 21.3489 29.3654 22.5339 28.7022L22.0455 27.8295L21.557 26.9569C20.7118 27.43 19.7103 27.6818 18.5227 27.6818V28.6818ZM22.0455 27.8295L22.536 28.7009C23.7249 28.0316 24.6538 27.0834 25.3104 25.8752L24.4318 25.3977L23.5532 24.9202C23.0735 25.8029 22.4114 26.4759 21.5549 26.9581L22.0455 27.8295ZM24.4318 25.3977L25.3092 25.8775C25.9792 24.6521 26.2955 23.2424 26.2955 21.6818H25.2955H24.2955C24.2955 22.9697 24.0359 24.0373 23.5544 24.918L24.4318 25.3977ZM25.2955 21.6818L25.0894 22.6604L25.9531 22.8422L26.1591 21.8636L26.3651 20.8851L25.5015 20.7033L25.2955 21.6818ZM26.1591 21.8636V20.8636H19.1591V21.8636V22.8636H26.1591V21.8636ZM19.1591 21.8636H20.1591V19.3636H19.1591H18.1591V21.8636H19.1591ZM19.1591 19.3636V20.3636H28.0227V19.3636V18.3636H19.1591V19.3636ZM28.0227 19.3636H27.0227V21.8636H28.0227H29.0227V19.3636H28.0227ZM28.0227 21.8636H27.0227C27.0227 23.6351 26.6458 25.1232 25.9295 26.3635L26.7955 26.8636L27.6614 27.3638C28.5814 25.7707 29.0227 23.9255 29.0227 21.8636H28.0227ZM26.7955 26.8636L25.9275 26.367C25.2088 27.6231 24.2223 28.5894 22.9533 29.281L23.4318 30.1591L23.9103 31.0372C25.505 30.1681 26.7609 28.9375 27.6634 27.3603L26.7955 26.8636ZM23.4318 30.1591L22.9549 29.2801C21.6966 29.9628 20.2284 30.3182 18.5227 30.3182V31.3182V32.3182C20.5141 32.3182 22.3185 31.9008 23.9087 31.0381L23.4318 30.1591ZM18.5227 31.3182V30.3182C16.6253 30.3182 15.0022 29.8739 13.6187 29.0143L13.0909 29.8636L12.5631 30.713C14.3009 31.7928 16.2989 32.3182 18.5227 32.3182V31.3182ZM13.0909 29.8636L13.6205 29.0154C12.2403 28.1536 11.1499 26.9235 10.3535 25.2892L9.45455 25.7273L8.55559 26.1653C9.50163 28.1068 10.8354 29.6343 12.5613 30.7119L13.0909 29.8636ZM9.45455 25.7273L10.355 25.2923C9.5705 23.6683 9.15909 21.7024 9.15909 19.3636H8.15909H7.15909C7.15909 21.934 7.61132 24.2105 8.5541 26.1622L9.45455 25.7273ZM8.15909 19.3636H9.15909C9.15909 17.611 9.39355 16.0656 9.84592 14.7154L8.89773 14.3977L7.94953 14.08C7.41705 15.6693 7.15909 17.4344 7.15909 19.3636H8.15909ZM8.89773 14.3977L9.84494 14.7183C10.3083 13.3494 10.9517 12.2108 11.7636 11.2839L11.0114 10.625L10.2591 9.96611C9.25287 11.1149 8.48717 12.4915 7.95051 14.0771L8.89773 14.3977ZM11.0114 10.625L11.7636 11.2839C12.5787 10.3533 13.5371 9.64549 14.6453 9.15222L14.2386 8.23864L13.832 7.32505C12.4553 7.93784 11.2622 8.82095 10.2591 9.96611L11.0114 10.625ZM14.2386 8.23864L14.6453 9.15222C15.7477 8.66151 16.9748 8.40909 18.3409 8.40909V7.40909V6.40909C16.7221 6.40909 15.2144 6.7097 13.832 7.32505L14.2386 8.23864ZM18.3409 7.40909V8.40909C19.466 8.40909 20.4973 8.57899 21.4424 8.90977L21.7727 7.96591L22.1031 7.02205C20.9269 6.6104 19.6703 6.40909 18.3409 6.40909V7.40909ZM21.7727 7.96591L21.4505 8.91256C22.4132 9.24029 23.2589 9.70375 23.996 10.3001L24.625 9.52273L25.254 8.74532C24.3244 7.99321 23.2687 7.4188 22.095 7.01926L21.7727 7.96591ZM24.625 9.52273L24.0038 10.3063C24.7494 10.8975 25.3708 11.6055 25.8704 12.436L26.7273 11.9205L27.5842 11.4049C26.9626 10.3717 26.1824 9.4813 25.2462 8.73911L24.625 9.52273ZM26.7273 11.9205L25.8723 12.4391C26.3667 13.2543 26.7122 14.1665 26.9036 15.1847L27.8864 15L28.8692 14.8153C28.6362 13.5759 28.209 12.4351 27.5823 11.4018L26.7273 11.9205ZM27.8864 15V14H24.9773V15V16H27.8864V15ZM32.4858 31H31.4858V32H32.4858V31ZM32.4858 13.5455V12.5455H31.4858V13.5455H32.4858ZM35.0767 13.5455H36.0767V12.5455H35.0767V13.5455ZM35.0767 16.1818H34.0767V17.1818H35.0767V16.1818ZM35.2585 16.1818V17.1818H35.9558L36.1969 16.5275L35.2585 16.1818ZM36.9858 14.0795L36.4435 13.2394L36.4435 13.2394L36.9858 14.0795ZM41.2131 13.3182H42.2131V12.4132L41.3126 12.3231L41.2131 13.3182ZM41.2131 16.0455L40.9705 17.0156L42.2131 17.3262V16.0455H41.2131ZM40.5881 15.9432L40.4237 16.9296L40.4367 16.9318L40.4499 16.9336L40.5881 15.9432ZM37.304 16.3977L37.7714 17.2818L37.7751 17.2798L37.304 16.3977ZM35.7358 17.8523L34.8866 17.3241L34.8849 17.327L35.7358 17.8523ZM35.1676 31V32H36.1676V31H35.1676ZM32.4858 31H33.4858V13.5455H32.4858H31.4858V31H32.4858ZM32.4858 13.5455V14.5455H35.0767V13.5455V12.5455H32.4858V13.5455ZM35.0767 13.5455H34.0767V16.1818H35.0767H36.0767V13.5455H35.0767ZM35.0767 16.1818V17.1818H35.2585V16.1818V15.1818H35.0767V16.1818ZM35.2585 16.1818L36.1969 16.5275C36.4342 15.8834 36.8619 15.3498 37.5281 14.9197L36.9858 14.0795L36.4435 13.2394C35.4431 13.8851 34.7192 14.7529 34.3202 15.8361L35.2585 16.1818ZM36.9858 14.0795L37.5281 14.9197C38.1909 14.4919 38.94 14.2727 39.804 14.2727V13.2727V12.2727C38.5771 12.2727 37.4474 12.5914 36.4435 13.2394L36.9858 14.0795ZM39.804 13.2727V14.2727C39.9893 14.2727 40.2263 14.2763 40.517 14.2838L40.5426 13.2841L40.5682 12.2844C40.268 12.2767 40.0126 12.2727 39.804 12.2727V13.2727ZM40.5426 13.2841L40.517 14.2838C40.8061 14.2912 40.9998 14.3018 41.1136 14.3132L41.2131 13.3182L41.3126 12.3231C41.1233 12.3042 40.87 12.2922 40.5682 12.2844L40.5426 13.2841ZM41.2131 13.3182H40.2131V16.0455H41.2131H42.2131V13.3182H41.2131ZM41.2131 16.0455L41.4556 15.0753C41.3026 15.0371 41.0371 14.9961 40.7263 14.9528L40.5881 15.9432L40.4499 16.9336C40.6087 16.9558 40.7337 16.9744 40.8271 16.9897C40.8738 16.9973 40.9097 17.0037 40.9363 17.0087C40.965 17.0142 40.9741 17.0165 40.9705 17.0156L41.2131 16.0455ZM40.5881 15.9432L40.7525 14.9568C40.3747 14.8938 39.9822 14.8636 39.5767 14.8636V15.8636V16.8636C39.8833 16.8636 40.1651 16.8865 40.4237 16.9296L40.5881 15.9432ZM39.5767 15.8636V14.8636C38.5843 14.8636 37.6615 15.0731 36.8329 15.5157L37.304 16.3977L37.7751 17.2798C38.2798 17.0103 38.8721 16.8636 39.5767 16.8636V15.8636ZM37.304 16.3977L36.8366 15.5137C36.0241 15.9433 35.3684 16.5496 34.8866 17.3241L35.7358 17.8523L36.585 18.3804C36.876 17.9125 37.2657 17.5492 37.7714 17.2818L37.304 16.3977ZM35.7358 17.8523L34.8849 17.327C34.3997 18.113 34.1676 18.9989 34.1676 19.9545H35.1676H36.1676C36.1676 19.3344 36.3143 18.8188 36.5867 18.3775L35.7358 17.8523ZM35.1676 19.9545H34.1676V31H35.1676H36.1676V19.9545H35.1676ZM35.1676 31V30H32.4858V31V32H35.1676V31ZM46.517 30.7841L46.0912 31.6889L46.0975 31.6918L46.517 30.7841ZM44.3693 28.9545L43.5348 29.5056L43.5373 29.5092L44.3693 28.9545ZM44.1648 23.6136L45.0093 24.1492L45.0122 24.1446L44.1648 23.6136ZM47.9261 21.3409L48.1401 22.3178L48.147 22.3162L47.9261 21.3409ZM50.3466 20.9091L50.2191 19.9173L50.2169 19.9175L50.3466 20.9091ZM52.9261 20.6023L53.029 21.597L53.039 21.5959L52.9261 20.6023ZM54.3807 20.2273L53.8914 19.3551L53.8822 19.3604L54.3807 20.2273ZM53.9261 16.6136L53.2103 17.312L53.2147 17.3164L53.9261 16.6136ZM48.1534 16.5227L48.7639 17.3147L48.7639 17.3147L48.1534 16.5227ZM46.6193 18.3182L46.283 19.2599L47.1421 19.5668L47.5263 18.7393L46.6193 18.3182ZM44.0739 17.4091L43.1547 17.0152L42.7356 17.993L43.7375 18.3508L44.0739 17.4091ZM45.892 14.9318L46.5071 15.7203L46.5081 15.7195L45.892 14.9318ZM48.392 13.6818L48.6441 14.6495L48.6497 14.6481L48.392 13.6818ZM53.0057 13.5227L52.8214 14.5057L52.8331 14.5077L53.0057 13.5227ZM55.1307 14.3295L54.6162 15.187L54.6204 15.1895L55.1307 14.3295ZM56.8466 16.1818L55.9705 16.664L55.9705 16.664L56.8466 16.1818ZM57.5284 31V32H58.5284V31H57.5284ZM54.8466 31H53.8466V32H54.8466V31ZM54.8466 28.6364H55.8466V27.6364H54.8466V28.6364ZM54.7102 28.6364V27.6364H54.081L53.8087 28.2036L54.7102 28.6364ZM53.8011 29.8523L54.5145 30.5531L54.5145 30.5531L53.8011 29.8523ZM52.108 30.9545L51.7128 30.0359L51.7128 30.0359L52.108 30.9545ZM52.6193 28.375L52.1261 27.5051L52.1222 27.5073L52.6193 28.375ZM54.2784 26.7614L53.4114 26.2631L53.4071 26.2706L54.2784 26.7614ZM54.8466 22.2273H55.8466V19.4652L54.0784 21.5871L54.8466 22.2273ZM54.0966 22.6023L54.3662 23.5653L54.3788 23.5616L54.0966 22.6023ZM52.7784 22.8864L52.9305 23.8748L52.9428 23.8728L52.7784 22.8864ZM51.3352 23.0909L51.4492 24.0845L51.4632 24.0827L51.3352 23.0909ZM50.2102 23.2273L50.3396 24.2189L50.3407 24.2187L50.2102 23.2273ZM48.2557 23.6705L48.5683 24.6204L48.5755 24.6179L48.2557 23.6705ZM46.8011 24.5682L46.0669 23.8893L46.0663 23.8899L46.8011 24.5682ZM47.2898 28.2955L46.7205 29.1177L46.7309 29.1247L47.2898 28.2955ZM49.5284 31.4091V30.4091C48.5506 30.4091 47.6923 30.2256 46.9366 29.8764L46.517 30.7841L46.0975 31.6918C47.1448 32.1759 48.2941 32.4091 49.5284 32.4091V31.4091ZM46.517 30.7841L46.9428 29.8793C46.1988 29.5291 45.6263 29.0372 45.2014 28.3998L44.3693 28.9545L43.5373 29.5092C44.173 30.4628 45.0322 31.1906 46.0912 31.6889L46.517 30.7841ZM44.3693 28.9545L45.2038 28.4035C44.7998 27.7917 44.5739 27.022 44.5739 26.0455H43.5739H42.5739C42.5739 27.3416 42.8783 28.5113 43.5349 29.5056L44.3693 28.9545ZM43.5739 26.0455H44.5739C44.5739 25.1691 44.7473 24.5624 45.0093 24.1492L44.1648 23.6136L43.3203 23.0781C42.7944 23.9073 42.5739 24.9218 42.5739 26.0455H43.5739ZM44.1648 23.6136L45.0122 24.1446C45.3134 23.6637 45.7111 23.2909 46.2196 23.0162L45.7443 22.1364L45.269 21.2565C44.4593 21.694 43.804 22.3059 43.3173 23.0827L44.1648 23.6136ZM45.7443 22.1364L46.2196 23.0162C46.7898 22.7082 47.428 22.4737 48.1401 22.3177L47.9261 21.3409L47.7122 20.3641C46.8334 20.5566 46.0171 20.8524 45.269 21.2565L45.7443 22.1364ZM47.9261 21.3409L48.147 22.3162C48.9201 22.1412 49.6965 22.0027 50.4763 21.9006L50.3466 20.9091L50.2169 19.9175C49.3754 20.0276 48.5382 20.177 47.7053 20.3656L47.9261 21.3409ZM50.3466 20.9091L50.4741 21.9009C51.5308 21.7651 52.3816 21.6639 53.029 21.597L52.9261 20.6023L52.8232 19.6076C52.1525 19.677 51.2836 19.7804 50.2191 19.9173L50.3466 20.9091ZM52.9261 20.6023L53.039 21.5959C53.7396 21.5163 54.3928 21.3738 54.8792 21.0942L54.3807 20.2273L53.8822 19.3604C53.7625 19.4292 53.446 19.5368 52.8132 19.6087L52.9261 20.6023ZM54.3807 20.2273L54.8699 21.0994C55.568 20.7078 55.8466 20.0208 55.8466 19.3182H54.8466H53.8466C53.8466 19.4169 53.8287 19.4356 53.8402 19.4132C53.846 19.4018 53.8558 19.3874 53.8689 19.3739C53.8751 19.3676 53.8806 19.3629 53.885 19.3596C53.8893 19.3563 53.8918 19.3549 53.8914 19.3551L54.3807 20.2273ZM54.8466 19.3182H55.8466V19.2273H54.8466H53.8466V19.3182H54.8466ZM54.8466 19.2273H55.8466C55.8466 17.921 55.4845 16.7683 54.6376 15.9109L53.9261 16.6136L53.2147 17.3164C53.595 17.7014 53.8466 18.2911 53.8466 19.2273H54.8466ZM53.9261 16.6136L54.6419 15.9153C53.78 15.0318 52.5537 14.6818 51.1648 14.6818V15.6818V16.6818C52.2455 16.6818 52.8602 16.953 53.2104 17.312L53.9261 16.6136ZM51.1648 15.6818V14.6818C49.749 14.6818 48.5025 14.9911 47.5429 15.7307L48.1534 16.5227L48.7639 17.3147C49.2589 16.9332 50.02 16.6818 51.1648 16.6818V15.6818ZM48.1534 16.5227L47.5429 15.7307C46.7263 16.3601 46.093 17.0771 45.7123 17.8971L46.6193 18.3182L47.5263 18.7393C47.7365 18.2865 48.1259 17.8065 48.7639 17.3147L48.1534 16.5227ZM46.6193 18.3182L46.9557 17.3764L44.4102 16.4673L44.0739 17.4091L43.7375 18.3508L46.283 19.2599L46.6193 18.3182ZM44.0739 17.4091L44.993 17.803C45.3944 16.8664 45.9069 16.1885 46.5071 15.7203L45.892 14.9318L45.277 14.1433C44.3621 14.857 43.6624 15.8306 43.1547 17.0152L44.0739 17.4091ZM45.892 14.9318L46.5081 15.7195C47.1703 15.2016 47.8806 14.8484 48.6441 14.6495L48.392 13.6818L48.14 12.7141C47.1004 12.9849 46.1441 13.4651 45.2759 14.1441L45.892 14.9318ZM48.392 13.6818L48.6497 14.6481C49.4807 14.4265 50.288 14.3182 51.0739 14.3182V13.3182V12.3182C50.1022 12.3182 49.1216 12.4523 48.1344 12.7156L48.392 13.6818ZM51.0739 13.3182V14.3182C51.5567 14.3182 52.1369 14.3772 52.8214 14.5056L53.0057 13.5227L53.19 12.5399C52.42 12.3955 51.7123 12.3182 51.0739 12.3182V13.3182ZM53.0057 13.5227L52.8331 14.5077C53.4393 14.614 54.0326 14.8369 54.6162 15.187L55.1307 14.3295L55.6452 13.4721C54.8652 13.004 54.0417 12.6891 53.1783 12.5377L53.0057 13.5227ZM55.1307 14.3295L54.6204 15.1895C55.1312 15.4927 55.5868 15.9668 55.9705 16.664L56.8466 16.1818L57.7226 15.6996C57.1973 14.7453 56.5089 13.9846 55.641 13.4696L55.1307 14.3295ZM56.8466 16.1818L55.9705 16.664C56.3144 17.2887 56.5284 18.2085 56.5284 19.5H57.5284H58.5284C58.5284 18.0188 58.2879 16.7264 57.7226 15.6996L56.8466 16.1818ZM57.5284 19.5H56.5284V31H57.5284H58.5284V19.5H57.5284ZM57.5284 31V30H54.8466V31V32H57.5284V31ZM54.8466 31H55.8466V28.6364H54.8466H53.8466V31H54.8466ZM54.8466 28.6364V27.6364H54.7102V28.6364V29.6364H54.8466V28.6364ZM54.7102 28.6364L53.8087 28.2036C53.6904 28.4501 53.466 28.7665 53.0878 29.1515L53.8011 29.8523L54.5145 30.5531C54.9848 30.0744 55.3664 29.5802 55.6118 29.0691L54.7102 28.6364ZM53.8011 29.8523L53.0878 29.1515C52.7752 29.4696 52.3288 29.771 51.7128 30.0359L52.108 30.9545L52.5031 31.8732C53.2962 31.532 53.9786 31.0986 54.5145 30.5531L53.8011 29.8523ZM52.108 30.9545L51.7128 30.0359C51.1665 30.2709 50.4494 30.4091 49.5284 30.4091V31.4091V32.4091C50.6377 32.4091 51.6404 32.2442 52.5031 31.8732L52.108 30.9545ZM49.9375 29V30C51.127 30 52.2027 29.7662 53.1164 29.2427L52.6193 28.375L52.1222 27.5073C51.5814 27.8172 50.8692 28 49.9375 28V29ZM52.6193 28.375L53.1126 29.2449C53.9866 28.7493 54.6792 28.0876 55.1497 27.2521L54.2784 26.7614L53.4071 26.2706C53.1352 26.7533 52.7217 27.1674 52.1261 27.5051L52.6193 28.375ZM54.2784 26.7614L55.1454 27.2596C55.6072 26.4561 55.8466 25.592 55.8466 24.6818H54.8466H53.8466C53.8466 25.2262 53.7072 25.7485 53.4114 26.2631L54.2784 26.7614ZM54.8466 24.6818H55.8466V22.2273H54.8466H53.8466V24.6818H54.8466ZM54.8466 22.2273L54.0784 21.5871C54.1159 21.542 54.146 21.5198 54.1522 21.5154C54.159 21.5105 54.1527 21.5158 54.1267 21.5289C54.0721 21.5561 53.9733 21.5962 53.8144 21.6429L54.0966 22.6023L54.3788 23.5616C54.6063 23.4947 54.8256 23.4155 55.0211 23.3177C55.2063 23.2251 55.4335 23.085 55.6148 22.8675L54.8466 22.2273ZM54.0966 22.6023L53.827 21.6393C53.491 21.7334 53.0881 21.821 52.614 21.9L52.7784 22.8864L52.9428 23.8728C53.4687 23.7851 53.9446 23.6833 54.3662 23.5652L54.0966 22.6023ZM52.7784 22.8864L52.6264 21.898C52.1415 21.9726 51.6685 22.0396 51.2073 22.0991L51.3352 23.0909L51.4632 24.0827C51.9413 24.021 52.4304 23.9517 52.9305 23.8747L52.7784 22.8864ZM51.3352 23.0909L51.2212 22.0974C50.7564 22.1508 50.3754 22.1969 50.0798 22.2358L50.2102 23.2273L50.3407 24.2187C50.6208 24.1819 50.9898 24.1371 51.4492 24.0844L51.3352 23.0909ZM50.2102 23.2273L50.0809 22.2357C49.3254 22.3342 48.6096 22.4956 47.9359 22.723L48.2557 23.6705L48.5755 24.6179C49.1139 24.4362 49.7011 24.3022 50.3396 24.2189L50.2102 23.2273ZM48.2557 23.6705L47.9431 22.7206C47.2081 22.9625 46.5699 23.3453 46.0669 23.8893L46.8011 24.5682L47.5354 25.247C47.7748 24.9881 48.1063 24.7724 48.5683 24.6203L48.2557 23.6705ZM46.8011 24.5682L46.0663 23.8899C45.4895 24.5148 45.2557 25.3195 45.2557 26.1818H46.2557H47.2557C47.2557 25.6805 47.3855 25.4095 47.5359 25.2465L46.8011 24.5682ZM46.2557 26.1818H45.2557C45.2557 27.3991 45.7281 28.4306 46.7206 29.1176L47.2898 28.2955L47.859 27.4733C47.4727 27.2058 47.2557 26.8282 47.2557 26.1818H46.2557ZM47.2898 28.2955L46.7309 29.1247C47.6326 29.7324 48.724 30 49.9375 30V29V28C49.0146 28 48.3409 27.7979 47.8486 27.4662L47.2898 28.2955ZM62.4233 37.5455H61.4233V38.5455H62.4233V37.5455ZM62.4233 13.5455V12.5455H61.4233V13.5455H62.4233ZM65.0142 13.5455H66.0142V12.5455H65.0142V13.5455ZM65.0142 16.3182H64.0142V17.3182H65.0142V16.3182ZM65.3324 16.3182V17.3182H65.8751L66.1708 16.8632L65.3324 16.3182ZM66.1506 15.1591L65.349 14.5611L65.3475 14.5632L66.1506 15.1591ZM67.6733 13.8864L68.164 14.7577L68.1673 14.7558L67.6733 13.8864ZM74.2642 14.4205L74.8124 13.5841L74.8124 13.5841L74.2642 14.4205ZM76.8892 17.5455L77.7955 17.1228L77.7955 17.1228L76.8892 17.5455ZM76.8892 27.125L77.7955 27.5476L77.7964 27.5457L76.8892 27.125ZM74.2756 30.2614L74.8263 31.096L74.8303 31.0934L74.2756 30.2614ZM67.7301 30.8068L67.2403 31.6787L67.2478 31.6828L67.7301 30.8068ZM66.1733 29.5227L65.3733 30.1227L65.3779 30.1288L66.1733 29.5227ZM65.3324 28.3182L66.1827 27.7918L65.8894 27.3182H65.3324V28.3182ZM65.1051 28.3182V27.3182H64.1051V28.3182H65.1051ZM65.1051 37.5455V38.5455H66.1051V37.5455H65.1051ZM65.6392 25.7614L64.7055 26.1194L64.7064 26.1218L65.6392 25.7614ZM67.3324 28.1136L66.7246 28.9078L66.7298 28.9117L67.3324 28.1136ZM72.8665 28.0682L73.4854 28.8537L73.4864 28.8529L72.8665 28.0682ZM74.571 25.6591L73.6364 25.3034L73.635 25.3072L74.571 25.6591ZM74.5824 18.9545L73.6457 19.3049L73.649 19.3135L74.5824 18.9545ZM72.8892 16.6023L72.2752 17.3917L72.2841 17.3984L72.8892 16.6023ZM67.3097 16.5568L67.9017 17.3627L67.907 17.3588L67.3097 16.5568ZM65.6278 18.8523L66.5603 19.2137L66.5612 19.2113L65.6278 18.8523ZM62.4233 37.5455H63.4233V13.5455H62.4233H61.4233V37.5455H62.4233ZM62.4233 13.5455V14.5455H65.0142V13.5455V12.5455H62.4233V13.5455ZM65.0142 13.5455H64.0142V16.3182H65.0142H66.0142V13.5455H65.0142ZM65.0142 16.3182V17.3182H65.3324V16.3182V15.3182H65.0142V16.3182ZM65.3324 16.3182L66.1708 16.8632C66.3519 16.5847 66.611 16.2168 66.9537 15.7549L66.1506 15.1591L65.3475 14.5632C64.9932 15.0408 64.7069 15.4456 64.4939 15.7732L65.3324 16.3182ZM66.1506 15.1591L66.9521 15.7571C67.2055 15.4174 67.5948 15.0783 68.164 14.7577L67.6733 13.8864L67.1826 13.0151C66.4336 13.4369 65.8078 13.9462 65.349 14.5611L66.1506 15.1591ZM67.6733 13.8864L68.1673 14.7558C68.6279 14.4941 69.3371 14.3182 70.3778 14.3182V13.3182V12.3182C69.1458 12.3182 68.052 12.521 67.1793 13.0169L67.6733 13.8864ZM70.3778 13.3182V14.3182C71.6723 14.3182 72.7733 14.639 73.716 15.2568L74.2642 14.4205L74.8124 13.5841C73.5127 12.7323 72.0228 12.3182 70.3778 12.3182V13.3182ZM74.2642 14.4205L73.716 15.2568C74.665 15.8788 75.4238 16.769 75.9829 17.9681L76.8892 17.5455L77.7955 17.1228C77.097 15.6249 76.1058 14.4318 74.8124 13.5841L74.2642 14.4205ZM76.8892 17.5455L75.9829 17.9681C76.5374 19.1572 76.8324 20.5977 76.8324 22.3182H77.8324H78.8324C78.8324 20.3719 78.4986 18.6307 77.7955 17.1228L76.8892 17.5455ZM77.8324 22.3182H76.8324C76.8324 24.0549 76.537 25.5075 75.982 26.7043L76.8892 27.125L77.7964 27.5457C78.499 26.0304 78.8324 24.2784 78.8324 22.3182H77.8324ZM76.8892 27.125L75.9829 26.7024C75.4227 27.9038 74.6654 28.7996 73.7209 29.4293L74.2756 30.2614L74.8303 31.0934C76.113 30.2382 77.0982 29.0431 77.7955 27.5476L76.8892 27.125ZM74.2756 30.2614L73.7248 29.4267C72.7893 30.044 71.7004 30.3636 70.4233 30.3636V31.3636V32.3636C72.0552 32.3636 73.5345 31.9484 74.8263 31.096L74.2756 30.2614ZM70.4233 31.3636V30.3636C69.3989 30.3636 68.6867 30.1919 68.2124 29.9308L67.7301 30.8068L67.2478 31.6828C68.122 32.1641 69.2053 32.3636 70.4233 32.3636V31.3636ZM67.7301 30.8068L68.2199 29.935C67.6317 29.6045 67.2295 29.259 66.9687 28.9167L66.1733 29.5227L65.3779 30.1288C65.8444 30.741 66.4801 31.2515 67.2403 31.6787L67.7301 30.8068ZM66.1733 29.5227L66.9733 28.9227C66.618 28.4491 66.3574 28.0742 66.1827 27.7918L65.3324 28.3182L64.4821 28.8445C64.7013 29.1986 65.0013 29.6267 65.3733 30.1227L66.1733 29.5227ZM65.3324 28.3182V27.3182H65.1051V28.3182V29.3182H65.3324V28.3182ZM65.1051 28.3182H64.1051V37.5455H65.1051H66.1051V28.3182H65.1051ZM65.1051 37.5455V36.5455H62.4233V37.5455V38.5455H65.1051V37.5455ZM65.0597 22.2727H64.0597C64.0597 23.687 64.2668 24.9753 64.7055 26.1194L65.6392 25.7614L66.5729 25.4033C66.2389 24.5322 66.0597 23.4948 66.0597 22.2727H65.0597ZM65.6392 25.7614L64.7064 26.1218C65.1492 27.2678 65.8156 28.212 66.7246 28.9078L67.3324 28.1136L67.9401 27.3195C67.3644 26.8789 66.9019 26.2549 66.572 25.401L65.6392 25.7614ZM67.3324 28.1136L66.7298 28.9117C67.672 29.6232 68.8018 29.9545 70.0597 29.9545V28.9545V27.9545C69.166 27.9545 68.4776 27.7253 67.935 27.3156L67.3324 28.1136ZM70.0597 28.9545V29.9545C71.3646 29.9545 72.5294 29.6068 73.4854 28.8537L72.8665 28.0682L72.2476 27.2827C71.7035 27.7114 70.9971 27.9545 70.0597 27.9545V28.9545ZM72.8665 28.0682L73.4864 28.8529C74.4027 28.129 75.0718 27.1688 75.5071 26.011L74.571 25.6591L73.635 25.3072C73.3127 26.1645 72.8454 26.8104 72.2466 27.2835L72.8665 28.0682ZM74.571 25.6591L75.5056 26.0148C75.941 24.8709 76.1506 23.6194 76.1506 22.2727H75.1506H74.1506C74.1506 23.4109 73.9738 24.4169 73.6364 25.3034L74.571 25.6591ZM75.1506 22.2727H76.1506C76.1506 20.9424 75.9451 19.712 75.5157 18.5956L74.5824 18.9545L73.649 19.3135C73.9772 20.1668 74.1506 21.1485 74.1506 22.2727H75.1506ZM74.5824 18.9545L75.519 18.6042C75.0894 17.4556 74.419 16.5089 73.4943 15.8061L72.8892 16.6023L72.2841 17.3984C72.8746 17.8472 73.333 18.4687 73.6458 19.3049L74.5824 18.9545ZM72.8892 16.6023L73.5031 15.8129C72.5451 15.0678 71.3733 14.7273 70.0597 14.7273V15.7273V16.7273C71.0187 16.7273 71.7333 16.9701 72.2753 17.3916L72.8892 16.6023ZM70.0597 15.7273V14.7273C68.7932 14.7273 67.6566 15.0514 66.7123 15.7549L67.3097 16.5568L67.907 17.3588C68.4475 16.9562 69.1443 16.7273 70.0597 16.7273V15.7273ZM67.3097 16.5568L66.7176 15.7509C65.7995 16.4254 65.1317 17.3565 64.6945 18.4933L65.6278 18.8523L66.5612 19.2113C66.8815 18.3783 67.3349 17.7791 67.9017 17.3627L67.3097 16.5568ZM65.6278 18.8523L64.6954 18.4909C64.2626 19.6076 64.0597 20.8751 64.0597 22.2727H65.0597H66.0597C66.0597 21.0643 66.2355 20.0514 66.5603 19.2137L65.6278 18.8523ZM84.6051 31V32H85.6051V31H84.6051ZM81.9233 31H80.9233V32H81.9233V31ZM81.9233 7.72727V6.72727H80.9233V7.72727H81.9233ZM84.6051 7.72727H85.6051V6.72727H84.6051V7.72727ZM84.6051 16.2727H83.6051V17.2727H84.6051V16.2727ZM84.8324 16.2727V17.2727H85.4767L85.743 16.686L84.8324 16.2727ZM86.6733 14.125L87.2172 14.9642L87.2191 14.9629L86.6733 14.125ZM93.0938 14.0341L92.6228 14.9163L92.6286 14.9193L93.0938 14.0341ZM95.1733 16.2045L94.2802 16.6545L94.2845 16.6628L95.1733 16.2045ZM95.9233 31V32H96.9233V31H95.9233ZM93.2415 31H92.2415V32H93.2415V31ZM92.1619 16.875L91.4299 17.5563L91.4369 17.5637L92.1619 16.875ZM86.8324 16.2841L86.3623 15.4015L86.3583 15.4036L86.8324 16.2841ZM85.196 17.9091L84.3249 17.4179L84.321 17.425L85.196 17.9091ZM84.6051 20.5H83.6051V31H84.6051H85.6051V20.5H84.6051ZM84.6051 31V30H81.9233V31V32H84.6051V31ZM81.9233 31H82.9233V7.72727H81.9233H80.9233V31H81.9233ZM81.9233 7.72727V8.72727H84.6051V7.72727V6.72727H81.9233V7.72727ZM84.6051 7.72727H83.6051V16.2727H84.6051H85.6051V7.72727H84.6051ZM84.6051 16.2727V17.2727H84.8324V16.2727V15.2727H84.6051V16.2727ZM84.8324 16.2727L85.743 16.686C86.0744 15.9557 86.5621 15.3888 87.2172 14.9642L86.6733 14.125L86.1294 13.2858C85.1482 13.9218 84.4086 14.7867 83.9218 15.8595L84.8324 16.2727ZM86.6733 14.125L87.2191 14.9629C87.8305 14.5647 88.7183 14.3182 89.9688 14.3182V13.3182V12.3182C88.4768 12.3182 87.1676 12.6096 86.1275 13.2871L86.6733 14.125ZM89.9688 13.3182V14.3182C91.0224 14.3182 91.897 14.5288 92.6228 14.9162L93.0938 14.0341L93.5647 13.1519C92.5026 12.5849 91.2939 12.3182 89.9688 12.3182V13.3182ZM93.0938 14.0341L92.6286 14.9193C93.3224 15.2839 93.8734 15.847 94.2803 16.6545L95.1733 16.2045L96.0663 15.7546C95.4884 14.6076 94.653 13.7237 93.5589 13.1488L93.0938 14.0341ZM95.1733 16.2045L94.2845 16.6628C94.6893 17.4478 94.9233 18.5119 94.9233 19.9091H95.9233H96.9233C96.9233 18.3063 96.6573 16.9007 96.0621 15.7463L95.1733 16.2045ZM95.9233 19.9091H94.9233V31H95.9233H96.9233V19.9091H95.9233ZM95.9233 31V30H93.2415V31V32H95.9233V31ZM93.2415 31H94.2415V20.0909H93.2415H92.2415V31H93.2415ZM93.2415 20.0909H94.2415C94.2415 18.5342 93.8347 17.1839 92.8869 16.1863L92.1619 16.875L91.4369 17.5637C91.9286 18.0813 92.2415 18.8749 92.2415 20.0909H93.2415ZM92.1619 16.875L92.894 16.1937C91.9536 15.1833 90.6758 14.7273 89.196 14.7273V15.7273V16.7273C90.2466 16.7273 90.946 17.0364 91.4299 17.5563L92.1619 16.875ZM89.196 15.7273V14.7273C88.1721 14.7273 87.2197 14.9448 86.3623 15.4015L86.8324 16.2841L87.3025 17.1667C87.839 16.881 88.4624 16.7273 89.196 16.7273V15.7273ZM86.8324 16.2841L86.3583 15.4036C85.4949 15.8685 84.815 16.5488 84.3249 17.4179L85.196 17.9091L86.0671 18.4002C86.3801 17.8452 86.7911 17.4421 87.3065 17.1646L86.8324 16.2841ZM85.196 17.9091L84.321 17.425C83.8272 18.3177 83.6051 19.3568 83.6051 20.5H84.6051H85.6051C85.6051 19.6129 85.777 18.9248 86.0711 18.3932L85.196 17.9091ZM109.648 23.7273V22.7273H107.627L108.853 24.3339L109.648 23.7273ZM112.739 23.7273L113.535 23.1222L113.235 22.7273H112.739V23.7273ZM115.33 27.1364L116.13 26.5364L116.126 26.5313L115.33 27.1364ZM116.011 28.0455L115.211 28.6455L115.212 28.6466L116.011 28.0455ZM119.875 33.1818V34.1818H121.879L120.674 32.5807L119.875 33.1818ZM116.784 33.1818L115.983 33.7801L116.283 34.1818H116.784V33.1818ZM114.239 29.7727L113.434 30.3659L113.437 30.371L114.239 29.7727ZM113.602 28.9091L114.407 28.3159L114.402 28.3091L114.397 28.3024L113.602 28.9091ZM119.5 25.7273L118.604 25.2831L118.604 25.2831L119.5 25.7273ZM115.852 29.8636L116.384 30.7107L116.384 30.7107L115.852 29.8636ZM105.261 29.8636L104.73 30.7107L104.73 30.7107L105.261 29.8636ZM101.614 25.7273L102.51 25.2831L102.51 25.2831L101.614 25.7273ZM101.614 13L100.718 12.5558L101.614 13ZM115.852 8.86364L116.384 8.01657L116.384 8.01657L115.852 8.86364ZM119.5 13L118.604 13.4442L118.604 13.4442L119.5 13ZM117.091 14.2614L116.19 14.6947L116.192 14.6987L117.091 14.2614ZM114.375 11.1136L113.844 11.961L113.847 11.9626L114.375 11.1136ZM106.727 11.1136L106.199 10.2647L106.196 10.2663L106.727 11.1136ZM104.011 14.2614L103.112 13.824L103.11 13.828L104.011 14.2614ZM104.011 24.4659L103.11 24.8993L103.112 24.9033L104.011 24.4659ZM106.727 27.6136L106.196 28.461L106.199 28.4626L106.727 27.6136ZM114.375 27.6136L113.847 26.7647L113.844 26.7663L114.375 27.6136ZM117.091 24.4659L116.192 24.0285L116.19 24.0325L117.091 24.4659ZM109.648 23.7273V24.7273H112.739V23.7273V22.7273H109.648V23.7273ZM112.739 23.7273L111.942 24.3324L114.533 27.7414L115.33 27.1364L116.126 26.5313L113.535 23.1222L112.739 23.7273ZM115.33 27.1364L114.53 27.7364L115.211 28.6455L116.011 28.0455L116.811 27.4455L116.13 26.5364L115.33 27.1364ZM116.011 28.0455L115.212 28.6466L119.076 33.7829L119.875 33.1818L120.674 32.5807L116.811 27.4443L116.011 28.0455ZM119.875 33.1818V32.1818H116.784V33.1818V34.1818H119.875V33.1818ZM116.784 33.1818L117.585 32.5835L115.04 29.1744L114.239 29.7727L113.437 30.371L115.983 33.7801L116.784 33.1818ZM114.239 29.7727L115.044 29.1795L114.407 28.3159L113.602 28.9091L112.797 29.5023L113.434 30.3659L114.239 29.7727ZM113.602 28.9091L114.397 28.3024L110.443 23.1206L109.648 23.7273L108.853 24.3339L112.807 29.5158L113.602 28.9091ZM120.83 19.3636H119.83C119.83 21.6989 119.408 23.6614 118.604 25.2831L119.5 25.7273L120.396 26.1714C121.365 24.2174 121.83 21.9375 121.83 19.3636H120.83ZM119.5 25.7273L118.604 25.2831C117.792 26.9217 116.695 28.1541 115.321 29.0166L115.852 29.8636L116.384 30.7107C118.1 29.6338 119.436 28.1086 120.396 26.1714L119.5 25.7273ZM115.852 29.8636L115.321 29.0166C113.949 29.8776 112.371 30.3182 110.557 30.3182V31.3182V32.3182C112.713 32.3182 114.665 31.7891 116.384 30.7107L115.852 29.8636ZM110.557 31.3182V30.3182C108.743 30.3182 107.165 29.8776 105.793 29.0166L105.261 29.8636L104.73 30.7107C106.449 31.7891 108.401 32.3182 110.557 32.3182V31.3182ZM105.261 29.8636L105.793 29.0166C104.418 28.1541 103.322 26.9217 102.51 25.2831L101.614 25.7273L100.718 26.1714C101.678 28.1086 103.014 29.6338 104.73 30.7107L105.261 29.8636ZM101.614 25.7273L102.51 25.2831C101.706 23.6614 101.284 21.6989 101.284 19.3636H100.284H99.2841C99.2841 21.9375 99.7489 24.2174 100.718 26.1714L101.614 25.7273ZM100.284 19.3636H101.284C101.284 17.0284 101.706 15.0659 102.51 13.4442L101.614 13L100.718 12.5558C99.7489 14.5099 99.2841 16.7898 99.2841 19.3636H100.284ZM101.614 13L102.51 13.4442C103.322 11.8056 104.418 10.5732 105.793 9.7107L105.261 8.86364L104.73 8.01657C103.014 9.09346 101.678 10.6186 100.718 12.5558L101.614 13ZM105.261 8.86364L105.793 9.7107C107.165 8.84968 108.743 8.40909 110.557 8.40909V7.40909V6.40909C108.401 6.40909 106.449 6.9382 104.73 8.01657L105.261 8.86364ZM110.557 7.40909V8.40909C112.371 8.40909 113.949 8.84968 115.321 9.7107L115.852 8.86364L116.384 8.01657C114.665 6.9382 112.713 6.40909 110.557 6.40909V7.40909ZM115.852 8.86364L115.321 9.7107C116.695 10.5732 117.792 11.8056 118.604 13.4442L119.5 13L120.396 12.5558C119.436 10.6186 118.1 9.09346 116.384 8.01657L115.852 8.86364ZM119.5 13L118.604 13.4442C119.408 15.0659 119.83 17.0284 119.83 19.3636H120.83H121.83C121.83 16.7898 121.365 14.5099 120.396 12.5558L119.5 13ZM118.102 19.3636H119.102C119.102 17.2417 118.748 15.3818 117.99 13.824L117.091 14.2614L116.192 14.6987C116.782 15.9136 117.102 17.4553 117.102 19.3636H118.102ZM117.091 14.2614L117.992 13.828C117.255 12.2954 116.231 11.0908 114.903 10.2647L114.375 11.1136L113.847 11.9626C114.807 12.5607 115.593 13.4546 116.19 14.6947L117.091 14.2614ZM114.375 11.1136L114.906 10.2663C113.602 9.44924 112.144 9.04545 110.557 9.04545V10.0455V11.0455C111.788 11.0455 112.875 11.3538 113.844 11.961L114.375 11.1136ZM110.557 10.0455V9.04545C108.97 9.04545 107.509 9.44921 106.199 10.2647L106.727 11.1136L107.256 11.9626C108.234 11.3538 109.326 11.0455 110.557 11.0455V10.0455ZM106.727 11.1136L106.196 10.2663C104.879 11.092 103.856 12.2949 103.112 13.824L104.011 14.2614L104.911 14.6987C105.515 13.4551 106.303 12.5595 107.258 11.961L106.727 11.1136ZM104.011 14.2614L103.11 13.828C102.362 15.3847 102.011 17.2431 102.011 19.3636H103.011H104.011C104.011 17.4539 104.328 15.9107 104.913 14.6947L104.011 14.2614ZM103.011 19.3636H102.011C102.011 21.4842 102.362 23.3425 103.11 24.8993L104.011 24.4659L104.913 24.0325C104.328 22.8165 104.011 21.2734 104.011 19.3636H103.011ZM104.011 24.4659L103.112 24.9033C103.856 26.4324 104.879 27.6352 106.196 28.461L106.727 27.6136L107.258 26.7663C106.303 26.1678 105.515 25.2722 104.911 24.0286L104.011 24.4659ZM106.727 27.6136L106.199 28.4626C107.509 29.2781 108.97 29.6818 110.557 29.6818V28.6818V27.6818C109.326 27.6818 108.234 27.3735 107.256 26.7647L106.727 27.6136ZM110.557 28.6818V29.6818C112.144 29.6818 113.602 29.278 114.906 28.461L114.375 27.6136L113.844 26.7663C112.875 27.3735 111.788 27.6818 110.557 27.6818V28.6818ZM114.375 27.6136L114.903 28.4626C116.231 27.6365 117.255 26.4319 117.992 24.8993L117.091 24.4659L116.19 24.0325C115.593 25.2726 114.807 26.1665 113.847 26.7647L114.375 27.6136ZM117.091 24.4659L117.99 24.9033C118.748 23.3454 119.102 21.4856 119.102 19.3636H118.102H117.102C117.102 21.272 116.782 22.8137 116.192 24.0286L117.091 24.4659ZM125.568 31H124.568V32H125.568V31ZM125.568 7.72727V6.72727H124.568V7.72727H125.568ZM128.386 7.72727H129.386V6.72727H128.386V7.72727ZM128.386 28.5H127.386V29.5H128.386V28.5ZM139.205 28.5H140.205V27.5H139.205V28.5ZM139.205 31V32H140.205V31H139.205ZM125.568 31H126.568V7.72727H125.568H124.568V31H125.568ZM125.568 7.72727V8.72727H128.386V7.72727V6.72727H125.568V7.72727ZM128.386 7.72727H127.386V28.5H128.386H129.386V7.72727H128.386ZM128.386 28.5V29.5H139.205V28.5V27.5H128.386V28.5ZM139.205 28.5H138.205V31H139.205H140.205V28.5H139.205ZM139.205 31V30H125.568V31V32H139.205V31Z" fill="#1B1B1B" mask="url(#path-1-outside-1_157_9)"/>
</g>
<g filter="url(#filter1_d_157_9)">
<mask id="path-3-outside-2_157_9" maskUnits="userSpaceOnUse" x="113" y="43" width="101" height="33" fill="black">
<rect fill="white" x="113" y="43" width="101" height="33"/>
<path d="M114.678 68V44.7273H128.723V47.2273H117.496V55.0909H127.996V57.5909H117.496V65.5H128.905V68H114.678ZM136.121 57.5V68H133.439V50.5455H136.03V53.2727H136.257C136.666 52.3864 137.287 51.6742 138.121 51.1364C138.954 50.5909 140.03 50.3182 141.348 50.3182C142.53 50.3182 143.564 50.5606 144.45 51.0455C145.337 51.5227 146.026 52.25 146.518 53.2273C147.011 54.197 147.257 55.4242 147.257 56.9091V68H144.575V57.0909C144.575 55.7197 144.219 54.6515 143.507 53.8864C142.795 53.1136 141.818 52.7273 140.575 52.7273C139.719 52.7273 138.954 52.9129 138.28 53.2841C137.613 53.6553 137.087 54.197 136.7 54.9091C136.314 55.6212 136.121 56.4848 136.121 57.5ZM159.203 74.9091C157.908 74.9091 156.794 74.7424 155.862 74.4091C154.93 74.0833 154.154 73.6515 153.533 73.1136C152.919 72.5833 152.43 72.0152 152.067 71.4091L154.203 69.9091C154.446 70.2273 154.752 70.5909 155.124 71C155.495 71.4167 156.002 71.7765 156.646 72.0795C157.298 72.3902 158.15 72.5455 159.203 72.5455C160.612 72.5455 161.775 72.2045 162.692 71.5227C163.608 70.8409 164.067 69.7727 164.067 68.3182V64.7727H163.839C163.643 65.0909 163.362 65.4848 162.999 65.9545C162.643 66.4167 162.127 66.8295 161.453 67.1932C160.786 67.5492 159.885 67.7273 158.749 67.7273C157.339 67.7273 156.074 67.3939 154.953 66.7273C153.839 66.0606 152.957 65.0909 152.305 63.8182C151.661 62.5455 151.339 61 151.339 59.1818C151.339 57.3939 151.654 55.8371 152.283 54.5114C152.911 53.178 153.786 52.1477 154.908 51.4205C156.029 50.6856 157.324 50.3182 158.794 50.3182C159.93 50.3182 160.832 50.5076 161.499 50.8864C162.173 51.2576 162.688 51.6818 163.044 52.1591C163.408 52.6288 163.688 53.0152 163.885 53.3182H164.158V50.5455H166.749V68.5C166.749 70 166.408 71.2197 165.726 72.1591C165.052 73.1061 164.143 73.7992 162.999 74.2386C161.862 74.6856 160.597 74.9091 159.203 74.9091ZM159.112 65.3182C160.188 65.3182 161.097 65.072 161.839 64.5795C162.582 64.0871 163.146 63.3788 163.533 62.4545C163.919 61.5303 164.112 60.4242 164.112 59.1364C164.112 57.8788 163.923 56.7689 163.544 55.8068C163.165 54.8447 162.605 54.0909 161.862 53.5455C161.12 53 160.203 52.7273 159.112 52.7273C157.976 52.7273 157.029 53.0152 156.271 53.5909C155.521 54.1667 154.957 54.9394 154.578 55.9091C154.207 56.8788 154.021 57.9545 154.021 59.1364C154.021 60.3485 154.211 61.4205 154.589 62.3523C154.976 63.2765 155.544 64.0038 156.294 64.5341C157.052 65.0568 157.991 65.3182 159.112 65.3182ZM171.658 68V50.5455H174.339V68H171.658ZM173.021 47.6364C172.499 47.6364 172.048 47.4583 171.669 47.1023C171.298 46.7462 171.112 46.3182 171.112 45.8182C171.112 45.3182 171.298 44.8902 171.669 44.5341C172.048 44.178 172.499 44 173.021 44C173.544 44 173.991 44.178 174.362 44.5341C174.741 44.8902 174.93 45.3182 174.93 45.8182C174.93 46.3182 174.741 46.7462 174.362 47.1023C173.991 47.4583 173.544 47.6364 173.021 47.6364ZM181.933 57.5V68H179.251V50.5455H181.842V53.2727H182.07C182.479 52.3864 183.1 51.6742 183.933 51.1364C184.767 50.5909 185.842 50.3182 187.161 50.3182C188.342 50.3182 189.376 50.5606 190.263 51.0455C191.149 51.5227 191.839 52.25 192.331 53.2273C192.823 54.197 193.07 55.4242 193.07 56.9091V68H190.388V57.0909C190.388 55.7197 190.032 54.6515 189.32 53.8864C188.607 53.1136 187.63 52.7273 186.388 52.7273C185.532 52.7273 184.767 52.9129 184.092 53.2841C183.426 53.6553 182.899 54.197 182.513 54.9091C182.126 55.6212 181.933 56.4848 181.933 57.5ZM205.288 68.3636C203.607 68.3636 202.156 67.9924 200.936 67.25C199.724 66.5 198.788 65.4545 198.129 64.1136C197.478 62.7652 197.152 61.197 197.152 59.4091C197.152 57.6212 197.478 56.0455 198.129 54.6818C198.788 53.3106 199.705 52.2424 200.879 51.4773C202.061 50.7045 203.44 50.3182 205.016 50.3182C205.925 50.3182 206.822 50.4697 207.709 50.7727C208.595 51.0758 209.402 51.5682 210.129 52.25C210.857 52.9242 211.436 53.8182 211.868 54.9318C212.3 56.0455 212.516 57.4167 212.516 59.0455V60.1818H199.061V57.8636H209.788C209.788 56.8788 209.591 56 209.197 55.2273C208.811 54.4545 208.258 53.8447 207.538 53.3977C206.826 52.9508 205.985 52.7273 205.016 52.7273C203.947 52.7273 203.023 52.9924 202.243 53.5227C201.47 54.0455 200.875 54.7273 200.459 55.5682C200.042 56.4091 199.834 57.3106 199.834 58.2727V59.8182C199.834 61.1364 200.061 62.2538 200.516 63.1705C200.978 64.0795 201.618 64.7727 202.436 65.25C203.254 65.7197 204.205 65.9545 205.288 65.9545C205.993 65.9545 206.629 65.8561 207.197 65.6591C207.773 65.4545 208.269 65.1515 208.686 64.75C209.103 64.3409 209.425 63.8333 209.652 63.2273L212.243 63.9545C211.97 64.8333 211.512 65.6061 210.868 66.2727C210.224 66.9318 209.429 67.447 208.482 67.8182C207.535 68.1818 206.47 68.3636 205.288 68.3636Z"/>
</mask>
<path d="M114.678 68V44.7273H128.723V47.2273H117.496V55.0909H127.996V57.5909H117.496V65.5H128.905V68H114.678ZM136.121 57.5V68H133.439V50.5455H136.03V53.2727H136.257C136.666 52.3864 137.287 51.6742 138.121 51.1364C138.954 50.5909 140.03 50.3182 141.348 50.3182C142.53 50.3182 143.564 50.5606 144.45 51.0455C145.337 51.5227 146.026 52.25 146.518 53.2273C147.011 54.197 147.257 55.4242 147.257 56.9091V68H144.575V57.0909C144.575 55.7197 144.219 54.6515 143.507 53.8864C142.795 53.1136 141.818 52.7273 140.575 52.7273C139.719 52.7273 138.954 52.9129 138.28 53.2841C137.613 53.6553 137.087 54.197 136.7 54.9091C136.314 55.6212 136.121 56.4848 136.121 57.5ZM159.203 74.9091C157.908 74.9091 156.794 74.7424 155.862 74.4091C154.93 74.0833 154.154 73.6515 153.533 73.1136C152.919 72.5833 152.43 72.0152 152.067 71.4091L154.203 69.9091C154.446 70.2273 154.752 70.5909 155.124 71C155.495 71.4167 156.002 71.7765 156.646 72.0795C157.298 72.3902 158.15 72.5455 159.203 72.5455C160.612 72.5455 161.775 72.2045 162.692 71.5227C163.608 70.8409 164.067 69.7727 164.067 68.3182V64.7727H163.839C163.643 65.0909 163.362 65.4848 162.999 65.9545C162.643 66.4167 162.127 66.8295 161.453 67.1932C160.786 67.5492 159.885 67.7273 158.749 67.7273C157.339 67.7273 156.074 67.3939 154.953 66.7273C153.839 66.0606 152.957 65.0909 152.305 63.8182C151.661 62.5455 151.339 61 151.339 59.1818C151.339 57.3939 151.654 55.8371 152.283 54.5114C152.911 53.178 153.786 52.1477 154.908 51.4205C156.029 50.6856 157.324 50.3182 158.794 50.3182C159.93 50.3182 160.832 50.5076 161.499 50.8864C162.173 51.2576 162.688 51.6818 163.044 52.1591C163.408 52.6288 163.688 53.0152 163.885 53.3182H164.158V50.5455H166.749V68.5C166.749 70 166.408 71.2197 165.726 72.1591C165.052 73.1061 164.143 73.7992 162.999 74.2386C161.862 74.6856 160.597 74.9091 159.203 74.9091ZM159.112 65.3182C160.188 65.3182 161.097 65.072 161.839 64.5795C162.582 64.0871 163.146 63.3788 163.533 62.4545C163.919 61.5303 164.112 60.4242 164.112 59.1364C164.112 57.8788 163.923 56.7689 163.544 55.8068C163.165 54.8447 162.605 54.0909 161.862 53.5455C161.12 53 160.203 52.7273 159.112 52.7273C157.976 52.7273 157.029 53.0152 156.271 53.5909C155.521 54.1667 154.957 54.9394 154.578 55.9091C154.207 56.8788 154.021 57.9545 154.021 59.1364C154.021 60.3485 154.211 61.4205 154.589 62.3523C154.976 63.2765 155.544 64.0038 156.294 64.5341C157.052 65.0568 157.991 65.3182 159.112 65.3182ZM171.658 68V50.5455H174.339V68H171.658ZM173.021 47.6364C172.499 47.6364 172.048 47.4583 171.669 47.1023C171.298 46.7462 171.112 46.3182 171.112 45.8182C171.112 45.3182 171.298 44.8902 171.669 44.5341C172.048 44.178 172.499 44 173.021 44C173.544 44 173.991 44.178 174.362 44.5341C174.741 44.8902 174.93 45.3182 174.93 45.8182C174.93 46.3182 174.741 46.7462 174.362 47.1023C173.991 47.4583 173.544 47.6364 173.021 47.6364ZM181.933 57.5V68H179.251V50.5455H181.842V53.2727H182.07C182.479 52.3864 183.1 51.6742 183.933 51.1364C184.767 50.5909 185.842 50.3182 187.161 50.3182C188.342 50.3182 189.376 50.5606 190.263 51.0455C191.149 51.5227 191.839 52.25 192.331 53.2273C192.823 54.197 193.07 55.4242 193.07 56.9091V68H190.388V57.0909C190.388 55.7197 190.032 54.6515 189.32 53.8864C188.607 53.1136 187.63 52.7273 186.388 52.7273C185.532 52.7273 184.767 52.9129 184.092 53.2841C183.426 53.6553 182.899 54.197 182.513 54.9091C182.126 55.6212 181.933 56.4848 181.933 57.5ZM205.288 68.3636C203.607 68.3636 202.156 67.9924 200.936 67.25C199.724 66.5 198.788 65.4545 198.129 64.1136C197.478 62.7652 197.152 61.197 197.152 59.4091C197.152 57.6212 197.478 56.0455 198.129 54.6818C198.788 53.3106 199.705 52.2424 200.879 51.4773C202.061 50.7045 203.44 50.3182 205.016 50.3182C205.925 50.3182 206.822 50.4697 207.709 50.7727C208.595 51.0758 209.402 51.5682 210.129 52.25C210.857 52.9242 211.436 53.8182 211.868 54.9318C212.3 56.0455 212.516 57.4167 212.516 59.0455V60.1818H199.061V57.8636H209.788C209.788 56.8788 209.591 56 209.197 55.2273C208.811 54.4545 208.258 53.8447 207.538 53.3977C206.826 52.9508 205.985 52.7273 205.016 52.7273C203.947 52.7273 203.023 52.9924 202.243 53.5227C201.47 54.0455 200.875 54.7273 200.459 55.5682C200.042 56.4091 199.834 57.3106 199.834 58.2727V59.8182C199.834 61.1364 200.061 62.2538 200.516 63.1705C200.978 64.0795 201.618 64.7727 202.436 65.25C203.254 65.7197 204.205 65.9545 205.288 65.9545C205.993 65.9545 206.629 65.8561 207.197 65.6591C207.773 65.4545 208.269 65.1515 208.686 64.75C209.103 64.3409 209.425 63.8333 209.652 63.2273L212.243 63.9545C211.97 64.8333 211.512 65.6061 210.868 66.2727C210.224 66.9318 209.429 67.447 208.482 67.8182C207.535 68.1818 206.47 68.3636 205.288 68.3636Z" fill="#A75757"/>
<path d="M114.678 68H113.678V69H114.678V68ZM114.678 44.7273V43.7273H113.678V44.7273H114.678ZM128.723 44.7273H129.723V43.7273H128.723V44.7273ZM128.723 47.2273V48.2273H129.723V47.2273H128.723ZM117.496 47.2273V46.2273H116.496V47.2273H117.496ZM117.496 55.0909H116.496V56.0909H117.496V55.0909ZM127.996 55.0909H128.996V54.0909H127.996V55.0909ZM127.996 57.5909V58.5909H128.996V57.5909H127.996ZM117.496 57.5909V56.5909H116.496V57.5909H117.496ZM117.496 65.5H116.496V66.5H117.496V65.5ZM128.905 65.5H129.905V64.5H128.905V65.5ZM128.905 68V69H129.905V68H128.905ZM114.678 68H115.678V44.7273H114.678H113.678V68H114.678ZM114.678 44.7273V45.7273H128.723V44.7273V43.7273H114.678V44.7273ZM128.723 44.7273H127.723V47.2273H128.723H129.723V44.7273H128.723ZM128.723 47.2273V46.2273H117.496V47.2273V48.2273H128.723V47.2273ZM117.496 47.2273H116.496V55.0909H117.496H118.496V47.2273H117.496ZM117.496 55.0909V56.0909H127.996V55.0909V54.0909H117.496V55.0909ZM127.996 55.0909H126.996V57.5909H127.996H128.996V55.0909H127.996ZM127.996 57.5909V56.5909H117.496V57.5909V58.5909H127.996V57.5909ZM117.496 57.5909H116.496V65.5H117.496H118.496V57.5909H117.496ZM117.496 65.5V66.5H128.905V65.5V64.5H117.496V65.5ZM128.905 65.5H127.905V68H128.905H129.905V65.5H128.905ZM128.905 68V67H114.678V68V69H128.905V68ZM136.121 68V69H137.121V68H136.121ZM133.439 68H132.439V69H133.439V68ZM133.439 50.5455V49.5455H132.439V50.5455H133.439ZM136.03 50.5455H137.03V49.5455H136.03V50.5455ZM136.03 53.2727H135.03V54.2727H136.03V53.2727ZM136.257 53.2727V54.2727H136.897L137.165 53.6918L136.257 53.2727ZM138.121 51.1364L138.663 51.9766L138.668 51.9731L138.121 51.1364ZM144.45 51.0455L143.97 51.9228L143.976 51.9259L144.45 51.0455ZM146.518 53.2273L145.625 53.6773L145.627 53.68L146.518 53.2273ZM147.257 68V69H148.257V68H147.257ZM144.575 68H143.575V69H144.575V68ZM143.507 53.8864L142.772 54.5641L142.775 54.5676L143.507 53.8864ZM138.28 53.2841L137.798 52.4081L137.793 52.4104L138.28 53.2841ZM136.7 54.9091L135.821 54.4322L135.821 54.4322L136.7 54.9091ZM136.121 57.5H135.121V68H136.121H137.121V57.5H136.121ZM136.121 68V67H133.439V68V69H136.121V68ZM133.439 68H134.439V50.5455H133.439H132.439V68H133.439ZM133.439 50.5455V51.5455H136.03V50.5455V49.5455H133.439V50.5455ZM136.03 50.5455H135.03V53.2727H136.03H137.03V50.5455H136.03ZM136.03 53.2727V54.2727H136.257V53.2727V52.2727H136.03V53.2727ZM136.257 53.2727L137.165 53.6918C137.493 52.9805 137.986 52.4133 138.663 51.9765L138.121 51.1364L137.578 50.2962C136.588 50.9352 135.839 51.7922 135.349 52.8537L136.257 53.2727ZM138.121 51.1364L138.668 51.9731C139.294 51.5636 140.163 51.3182 141.348 51.3182V50.3182V49.3182C139.897 49.3182 138.614 49.6183 137.573 50.2997L138.121 51.1364ZM141.348 50.3182V51.3182C142.391 51.3182 143.254 51.5311 143.97 51.9228L144.45 51.0455L144.93 50.1681C143.873 49.5901 142.669 49.3182 141.348 49.3182V50.3182ZM144.45 51.0455L143.976 51.9259C144.666 52.2975 145.217 52.8663 145.625 53.6773L146.518 53.2273L147.412 52.7773C146.835 51.6337 146.007 50.748 144.924 50.165L144.45 51.0455ZM146.518 53.2273L145.627 53.68C146.027 54.4678 146.257 55.527 146.257 56.9091H147.257H148.257C148.257 55.3214 147.995 53.9262 147.41 52.7745L146.518 53.2273ZM147.257 56.9091H146.257V68H147.257H148.257V56.9091H147.257ZM147.257 68V67H144.575V68V69H147.257V68ZM144.575 68H145.575V57.0909H144.575H143.575V68H144.575ZM144.575 57.0909H145.575C145.575 55.5479 145.172 54.2071 144.239 53.2051L143.507 53.8864L142.775 54.5676C143.267 55.0959 143.575 55.8915 143.575 57.0909H144.575ZM143.507 53.8864L144.242 53.2087C143.306 52.193 142.042 51.7273 140.575 51.7273V52.7273V53.7273C141.594 53.7273 142.284 54.0343 142.772 54.564L143.507 53.8864ZM140.575 52.7273V51.7273C139.57 51.7273 138.636 51.9467 137.798 52.4081L138.28 53.2841L138.762 54.1601C139.273 53.8791 139.869 53.7273 140.575 53.7273V52.7273ZM138.28 53.2841L137.793 52.4104C136.95 52.8797 136.292 53.564 135.821 54.4322L136.7 54.9091L137.579 55.386C137.881 54.8299 138.276 54.4309 138.766 54.1578L138.28 53.2841ZM136.7 54.9091L135.821 54.4322C135.338 55.3232 135.121 56.3597 135.121 57.5H136.121H137.121C137.121 56.61 137.29 55.9192 137.579 55.386L136.7 54.9091ZM155.862 74.4091L156.199 73.4675L156.192 73.4651L155.862 74.4091ZM153.533 73.1136L154.187 72.3576L154.187 72.357L153.533 73.1136ZM152.067 71.4091L151.492 70.5907L150.73 71.1255L151.209 71.9236L152.067 71.4091ZM154.203 69.9091L154.999 69.303L154.416 68.538L153.628 69.0907L154.203 69.9091ZM155.124 71L155.87 70.3348L155.864 70.328L155.124 71ZM156.646 72.0795L157.077 71.1769L157.072 71.1747L156.646 72.0795ZM162.692 71.5227L163.289 72.3251L163.289 72.3251L162.692 71.5227ZM164.067 64.7727H165.067V63.7727H164.067V64.7727ZM163.839 64.7727V63.7727H163.282L162.989 64.2464L163.839 64.7727ZM162.999 65.9545L162.208 65.3424L162.206 65.3442L162.999 65.9545ZM161.453 67.1932L161.924 68.0753L161.928 68.0733L161.453 67.1932ZM154.953 66.7273L154.439 67.5853L154.442 67.5868L154.953 66.7273ZM152.305 63.8182L151.413 64.2696L151.415 64.2739L152.305 63.8182ZM152.283 54.5114L153.186 54.9399L153.187 54.9379L152.283 54.5114ZM154.908 51.4205L155.452 52.2594L155.456 52.2568L154.908 51.4205ZM161.499 50.8864L161.005 51.7559L161.016 51.7624L161.499 50.8864ZM163.044 52.1591L162.243 52.7571L162.248 52.7642L162.253 52.7713L163.044 52.1591ZM163.885 53.3182L163.047 53.8632L163.342 54.3182H163.885V53.3182ZM164.158 53.3182V54.3182H165.158V53.3182H164.158ZM164.158 50.5455V49.5455H163.158V50.5455H164.158ZM166.749 50.5455H167.749V49.5455H166.749V50.5455ZM165.726 72.1591L164.917 71.5717L164.911 71.5791L165.726 72.1591ZM162.999 74.2386L162.64 73.3051L162.633 73.308L162.999 74.2386ZM161.839 64.5795L161.287 63.7462L161.287 63.7462L161.839 64.5795ZM163.533 62.4545L164.455 62.8402L164.455 62.8402L163.533 62.4545ZM163.544 55.8068L164.475 55.4405L164.475 55.4405L163.544 55.8068ZM161.862 53.5455L161.27 54.3513L161.27 54.3513L161.862 53.5455ZM156.271 53.5909L155.666 52.7947L155.662 52.7977L156.271 53.5909ZM154.578 55.9091L153.647 55.5452L153.644 55.5516L154.578 55.9091ZM154.589 62.3523L153.663 62.7289L153.667 62.738L154.589 62.3523ZM156.294 64.5341L155.717 65.3507L155.726 65.3572L156.294 64.5341ZM159.203 74.9091V73.9091C157.989 73.9091 156.995 73.7523 156.199 73.4675L155.862 74.4091L155.525 75.3507C156.593 75.7325 157.826 75.9091 159.203 75.9091V74.9091ZM155.862 74.4091L156.192 73.4651C155.356 73.1728 154.696 72.7981 154.187 72.3576L153.533 73.1136L152.878 73.8696C153.612 74.5049 154.505 74.9939 155.532 75.3531L155.862 74.4091ZM153.533 73.1136L154.187 72.357C153.642 71.8861 153.226 71.3974 152.924 70.8946L152.067 71.4091L151.209 71.9236C151.635 72.6329 152.197 73.2806 152.879 73.8702L153.533 73.1136ZM152.067 71.4091L152.641 72.2275L154.778 70.7275L154.203 69.9091L153.628 69.0907L151.492 70.5907L152.067 71.4091ZM154.203 69.9091L153.408 70.5151C153.673 70.8628 153.999 71.249 154.383 71.672L155.124 71L155.864 70.328C155.505 69.9328 155.219 69.5918 154.999 69.303L154.203 69.9091ZM155.124 71L154.377 71.6652C154.859 72.2062 155.487 72.6391 156.221 72.9844L156.646 72.0795L157.072 71.1747C156.518 70.9139 156.131 70.6272 155.87 70.3348L155.124 71ZM156.646 72.0795L156.216 72.9822C157.049 73.3794 158.064 73.5455 159.203 73.5455V72.5455V71.5455C158.236 71.5455 157.547 71.4009 157.077 71.1769L156.646 72.0795ZM159.203 72.5455V73.5455C160.776 73.5455 162.162 73.1627 163.289 72.3251L162.692 71.5227L162.095 70.7203C161.388 71.2464 160.448 71.5455 159.203 71.5455V72.5455ZM162.692 71.5227L163.289 72.3251C164.527 71.4041 165.067 69.9935 165.067 68.3182H164.067H163.067C163.067 69.5519 162.69 70.2777 162.095 70.7203L162.692 71.5227ZM164.067 68.3182H165.067V64.7727H164.067H163.067V68.3182H164.067ZM164.067 64.7727V63.7727H163.839V64.7727V65.7727H164.067V64.7727ZM163.839 64.7727L162.989 64.2464C162.818 64.523 162.561 64.8863 162.208 65.3424L162.999 65.9545L163.789 66.5667C164.163 66.0834 164.467 65.6588 164.69 65.2991L163.839 64.7727ZM162.999 65.9545L162.206 65.3442C161.958 65.6661 161.566 65.9961 160.978 66.313L161.453 67.1932L161.928 68.0733C162.689 67.663 163.327 67.1672 163.791 66.5649L162.999 65.9545ZM161.453 67.1932L160.982 66.3111C160.515 66.5605 159.797 66.7273 158.749 66.7273V67.7273V68.7273C159.973 68.7273 161.058 68.538 161.924 68.0753L161.453 67.1932ZM158.749 67.7273V66.7273C157.504 66.7273 156.418 66.4351 155.464 65.8677L154.953 66.7273L154.442 67.5868C155.73 68.3528 157.175 68.7273 158.749 68.7273V67.7273ZM154.953 66.7273L155.467 65.8693C154.53 65.3084 153.771 64.486 153.196 63.3625L152.305 63.8182L151.415 64.2739C152.143 65.6958 153.149 66.8128 154.439 67.5853L154.953 66.7273ZM152.305 63.8182L153.198 63.3667C152.641 62.2671 152.339 60.885 152.339 59.1818H151.339H150.339C150.339 61.115 150.682 62.8239 151.413 64.2696L152.305 63.8182ZM151.339 59.1818H152.339C152.339 57.5104 152.633 56.1057 153.186 54.9399L152.283 54.5114L151.379 54.0828C150.674 55.5685 150.339 57.2775 150.339 59.1818H151.339ZM152.283 54.5114L153.187 54.9379C153.745 53.755 154.503 52.8751 155.452 52.2594L154.908 51.4205L154.363 50.5815C153.07 51.4203 152.078 52.6011 151.378 54.0848L152.283 54.5114ZM154.908 51.4205L155.456 52.2568C156.399 51.639 157.5 51.3182 158.794 51.3182V50.3182V49.3182C157.149 49.3182 155.659 49.7323 154.36 50.5841L154.908 51.4205ZM158.794 50.3182V51.3182C159.835 51.3182 160.544 51.4941 161.005 51.7558L161.499 50.8864L161.993 50.0169C161.12 49.521 160.026 49.3182 158.794 49.3182V50.3182ZM161.499 50.8864L161.016 51.7624C161.601 52.0841 161.993 52.4225 162.243 52.7571L163.044 52.1591L163.846 51.5611C163.383 50.9412 162.745 50.4311 161.981 50.0104L161.499 50.8864ZM163.044 52.1591L162.253 52.7713C162.609 53.2311 162.871 53.593 163.047 53.8632L163.885 53.3182L164.723 52.7732C164.505 52.4373 164.206 52.0265 163.835 51.5469L163.044 52.1591ZM163.885 53.3182V54.3182H164.158V53.3182V52.3182H163.885V53.3182ZM164.158 53.3182H165.158V50.5455H164.158H163.158V53.3182H164.158ZM164.158 50.5455V51.5455H166.749V50.5455V49.5455H164.158V50.5455ZM166.749 50.5455H165.749V68.5H166.749H167.749V50.5455H166.749ZM166.749 68.5H165.749C165.749 69.8507 165.443 70.847 164.917 71.5717L165.726 72.1591L166.535 72.7465C167.373 71.5924 167.749 70.1493 167.749 68.5H166.749ZM165.726 72.1591L164.911 71.5791C164.357 72.3571 163.611 72.9322 162.64 73.3051L162.999 74.2386L163.357 75.1721C164.674 74.6663 165.746 73.855 166.54 72.7391L165.726 72.1591ZM162.999 74.2386L162.633 73.308C161.628 73.7031 160.489 73.9091 159.203 73.9091V74.9091V75.9091C160.705 75.9091 162.096 75.6681 163.365 75.1692L162.999 74.2386ZM159.112 65.3182V66.3182C160.343 66.3182 161.455 66.0348 162.392 65.4129L161.839 64.5795L161.287 63.7462C160.74 64.1092 160.033 64.3182 159.112 64.3182V65.3182ZM161.839 64.5795L162.392 65.4129C163.32 64.7978 164.002 63.9235 164.455 62.8402L163.533 62.4545L162.61 62.0689C162.29 62.8341 161.844 63.3764 161.287 63.7462L161.839 64.5795ZM163.533 62.4545L164.455 62.8402C164.905 61.7643 165.112 60.5204 165.112 59.1364H164.112H163.112C163.112 60.328 162.933 61.2963 162.61 62.0689L163.533 62.4545ZM164.112 59.1364H165.112C165.112 57.7797 164.908 56.5415 164.475 55.4405L163.544 55.8068L162.614 56.1731C162.938 56.9964 163.112 57.9778 163.112 59.1364H164.112ZM163.544 55.8068L164.475 55.4405C164.035 54.325 163.367 53.41 162.454 52.7396L161.862 53.5455L161.27 54.3513C161.842 54.7718 162.295 55.3644 162.614 56.1732L163.544 55.8068ZM161.862 53.5455L162.454 52.7396C161.51 52.046 160.376 51.7273 159.112 51.7273V52.7273V53.7273C160.031 53.7273 160.729 53.954 161.27 54.3513L161.862 53.5455ZM159.112 52.7273V51.7273C157.801 51.7273 156.63 52.0625 155.666 52.7947L156.271 53.5909L156.876 54.3871C157.428 53.9678 158.151 53.7273 159.112 53.7273V52.7273ZM156.271 53.5909L155.662 52.7977C154.753 53.4955 154.085 54.4234 153.647 55.5452L154.578 55.9091L155.51 56.2729C155.829 55.4554 156.289 54.8378 156.88 54.3841L156.271 53.5909ZM154.578 55.9091L153.644 55.5516C153.224 56.65 153.021 57.8491 153.021 59.1364H154.021H155.021C155.021 58.06 155.19 57.1075 155.512 56.2666L154.578 55.9091ZM154.021 59.1364H153.021C153.021 60.4517 153.227 61.6556 153.663 62.7289L154.589 62.3523L155.516 61.9757C155.195 61.1853 155.021 60.2452 155.021 59.1364H154.021ZM154.589 62.3523L153.667 62.738C154.119 63.8191 154.8 64.7022 155.717 65.3506L156.294 64.5341L156.871 63.7176C156.288 63.3054 155.833 62.7339 155.512 61.9666L154.589 62.3523ZM156.294 64.5341L155.726 65.3572C156.684 66.0182 157.833 66.3182 159.112 66.3182V65.3182V64.3182C158.149 64.3182 157.419 64.0954 156.862 63.711L156.294 64.5341ZM171.658 68H170.658V69H171.658V68ZM171.658 50.5455V49.5455H170.658V50.5455H171.658ZM174.339 50.5455H175.339V49.5455H174.339V50.5455ZM174.339 68V69H175.339V68H174.339ZM171.669 47.1023L170.977 47.824L170.984 47.8309L171.669 47.1023ZM171.669 44.5341L170.984 43.8054L170.977 43.8124L171.669 44.5341ZM174.362 44.5341L173.67 45.2558L173.677 45.2627L174.362 44.5341ZM174.362 47.1023L173.677 46.3736L173.67 46.3806L174.362 47.1023ZM171.658 68H172.658V50.5455H171.658H170.658V68H171.658ZM171.658 50.5455V51.5455H174.339V50.5455V49.5455H171.658V50.5455ZM174.339 50.5455H173.339V68H174.339H175.339V50.5455H174.339ZM174.339 68V67H171.658V68V69H174.339V68ZM173.021 47.6364V46.6364C172.752 46.6364 172.546 46.5543 172.354 46.3736L171.669 47.1023L170.984 47.8309C171.549 48.3624 172.246 48.6364 173.021 48.6364V47.6364ZM171.669 47.1023L172.361 46.3806C172.18 46.207 172.112 46.037 172.112 45.8182H171.112H170.112C170.112 46.5993 170.415 47.2854 170.977 47.824L171.669 47.1023ZM171.112 45.8182H172.112C172.112 45.5993 172.18 45.4293 172.361 45.2558L171.669 44.5341L170.977 43.8124C170.415 44.351 170.112 45.037 170.112 45.8182H171.112ZM171.669 44.5341L172.354 45.2627C172.546 45.082 172.752 45 173.021 45V44V43C172.246 43 171.549 43.274 170.984 43.8055L171.669 44.5341ZM173.021 44V45C173.291 45 173.488 45.0815 173.67 45.2558L174.362 44.5341L175.054 43.8124C174.494 43.2745 173.797 43 173.021 43V44ZM174.362 44.5341L173.677 45.2627C173.864 45.4382 173.93 45.6062 173.93 45.8182H174.93H175.93C175.93 45.0301 175.618 44.3421 175.047 43.8055L174.362 44.5341ZM174.93 45.8182H173.93C173.93 46.0301 173.864 46.1981 173.677 46.3736L174.362 47.1023L175.047 47.8309C175.618 47.2943 175.93 46.6062 175.93 45.8182H174.93ZM174.362 47.1023L173.67 46.3806C173.488 46.5548 173.291 46.6364 173.021 46.6364V47.6364V48.6364C173.797 48.6364 174.494 48.3618 175.054 47.824L174.362 47.1023ZM181.933 68V69H182.933V68H181.933ZM179.251 68H178.251V69H179.251V68ZM179.251 50.5455V49.5455H178.251V50.5455H179.251ZM181.842 50.5455H182.842V49.5455H181.842V50.5455ZM181.842 53.2727H180.842V54.2727H181.842V53.2727ZM182.07 53.2727V54.2727H182.709L182.978 53.6918L182.07 53.2727ZM183.933 51.1364L184.476 51.9766L184.481 51.9731L183.933 51.1364ZM190.263 51.0455L189.783 51.9228L189.789 51.9259L190.263 51.0455ZM192.331 53.2273L191.438 53.6773L191.439 53.68L192.331 53.2273ZM193.07 68V69H194.07V68H193.07ZM190.388 68H189.388V69H190.388V68ZM189.32 53.8864L188.584 54.5641L188.588 54.5676L189.32 53.8864ZM184.092 53.2841L183.61 52.4081L183.606 52.4104L184.092 53.2841ZM182.513 54.9091L181.634 54.4322L181.634 54.4322L182.513 54.9091ZM181.933 57.5H180.933V68H181.933H182.933V57.5H181.933ZM181.933 68V67H179.251V68V69H181.933V68ZM179.251 68H180.251V50.5455H179.251H178.251V68H179.251ZM179.251 50.5455V51.5455H181.842V50.5455V49.5455H179.251V50.5455ZM181.842 50.5455H180.842V53.2727H181.842H182.842V50.5455H181.842ZM181.842 53.2727V54.2727H182.07V53.2727V52.2727H181.842V53.2727ZM182.07 53.2727L182.978 53.6918C183.306 52.9805 183.799 52.4133 184.476 51.9765L183.933 51.1364L183.391 50.2962C182.401 50.9352 181.652 51.7922 181.162 52.8537L182.07 53.2727ZM183.933 51.1364L184.481 51.9731C185.107 51.5636 185.975 51.3182 187.161 51.3182V50.3182V49.3182C185.71 49.3182 184.427 49.6183 183.386 50.2997L183.933 51.1364ZM187.161 50.3182V51.3182C188.203 51.3182 189.067 51.5311 189.783 51.9228L190.263 51.0455L190.743 50.1681C189.686 49.5901 188.481 49.3182 187.161 49.3182V50.3182ZM190.263 51.0455L189.789 51.9259C190.479 52.2975 191.029 52.8663 191.438 53.6773L192.331 53.2273L193.224 52.7773C192.648 51.6337 191.82 50.748 190.737 50.165L190.263 51.0455ZM192.331 53.2273L191.439 53.68C191.839 54.4678 192.07 55.527 192.07 56.9091H193.07H194.07C194.07 55.3214 193.807 53.9262 193.223 52.7745L192.331 53.2273ZM193.07 56.9091H192.07V68H193.07H194.07V56.9091H193.07ZM193.07 68V67H190.388V68V69H193.07V68ZM190.388 68H191.388V57.0909H190.388H189.388V68H190.388ZM190.388 57.0909H191.388C191.388 55.5479 190.984 54.2071 190.052 53.2051L189.32 53.8864L188.588 54.5676C189.079 55.0959 189.388 55.8915 189.388 57.0909H190.388ZM189.32 53.8864L190.055 53.2087C189.119 52.193 187.854 51.7273 186.388 51.7273V52.7273V53.7273C187.406 53.7273 188.096 54.0343 188.584 54.564L189.32 53.8864ZM186.388 52.7273V51.7273C185.382 51.7273 184.448 51.9467 183.61 52.4081L184.092 53.2841L184.575 54.1601C185.085 53.8791 185.681 53.7273 186.388 53.7273V52.7273ZM184.092 53.2841L183.606 52.4104C182.763 52.8797 182.105 53.564 181.634 54.4322L182.513 54.9091L183.392 55.386C183.693 54.8299 184.088 54.4309 184.579 54.1578L184.092 53.2841ZM182.513 54.9091L181.634 54.4322C181.15 55.3232 180.933 56.3597 180.933 57.5H181.933H182.933C182.933 56.61 183.102 55.9192 183.392 55.386L182.513 54.9091ZM200.936 67.25L200.41 68.1004L200.416 68.1042L200.936 67.25ZM198.129 64.1136L197.229 64.5487L197.232 64.5548L198.129 64.1136ZM198.129 54.6818L197.228 54.2486L197.227 54.2507L198.129 54.6818ZM200.879 51.4773L201.425 52.3151L201.427 52.3142L200.879 51.4773ZM207.709 50.7727L208.032 49.8265L208.032 49.8265L207.709 50.7727ZM210.129 52.25L209.445 52.9795L209.449 52.9833L210.129 52.25ZM211.868 54.9318L212.8 54.5703L212.8 54.5703L211.868 54.9318ZM212.516 60.1818V61.1818H213.516V60.1818H212.516ZM199.061 60.1818H198.061V61.1818H199.061V60.1818ZM199.061 57.8636V56.8636H198.061V57.8636H199.061ZM209.788 57.8636V58.8636H210.788V57.8636H209.788ZM209.197 55.2273L208.303 55.6745L208.307 55.6815L209.197 55.2273ZM207.538 53.3977L207.007 54.2447L207.011 54.2472L207.538 53.3977ZM202.243 53.5227L202.803 54.351L202.805 54.3498L202.243 53.5227ZM200.459 55.5682L199.563 55.1242L199.563 55.1242L200.459 55.5682ZM200.516 63.1705L199.62 63.6147L199.624 63.6236L200.516 63.1705ZM202.436 65.25L201.932 66.1138L201.938 66.1173L202.436 65.25ZM207.197 65.6591L207.525 66.604L207.532 66.6014L207.197 65.6591ZM208.686 64.75L209.38 65.4701L209.387 65.4636L208.686 64.75ZM209.652 63.2273L209.922 62.2645L209.038 62.0163L208.716 62.8761L209.652 63.2273ZM212.243 63.9545L213.198 64.2509L213.503 63.2695L212.513 62.9918L212.243 63.9545ZM210.868 66.2727L211.583 66.9716L211.587 66.9675L210.868 66.2727ZM208.482 67.8182L208.84 68.7517L208.846 68.7492L208.482 67.8182ZM205.288 68.3636V67.3636C203.757 67.3636 202.493 67.0271 201.456 66.3958L200.936 67.25L200.416 68.1042C201.818 68.9578 203.456 69.3636 205.288 69.3636V68.3636ZM200.936 67.25L201.462 66.3996C200.418 65.7533 199.607 64.8534 199.027 63.6725L198.129 64.1136L197.232 64.5548C197.97 66.0557 199.03 67.2467 200.41 68.1004L200.936 67.25ZM198.129 64.1136L199.03 63.6786C198.455 62.4896 198.152 61.0752 198.152 59.4091H197.152H196.152C196.152 61.3188 196.5 63.0407 197.229 64.5487L198.129 64.1136ZM197.152 59.4091H198.152C198.152 57.7433 198.455 56.3195 199.032 55.1129L198.129 54.6818L197.227 54.2507C196.5 55.7714 196.152 57.4991 196.152 59.4091H197.152ZM198.129 54.6818L199.031 55.115C199.617 53.8941 200.417 52.9719 201.425 52.3151L200.879 51.4773L200.333 50.6394C198.993 51.5129 197.959 52.7272 197.228 54.2486L198.129 54.6818ZM200.879 51.4773L201.427 52.3142C202.427 51.66 203.611 51.3182 205.016 51.3182V50.3182V49.3182C203.269 49.3182 201.695 49.7491 200.332 50.6403L200.879 51.4773ZM205.016 50.3182V51.3182C205.811 51.3182 206.6 51.4504 207.385 51.719L207.709 50.7727L208.032 49.8265C207.045 49.489 206.038 49.3182 205.016 49.3182V50.3182ZM207.709 50.7727L207.385 51.719C208.129 51.9732 208.815 52.3883 209.445 52.9795L210.129 52.25L210.813 51.5205C209.989 50.748 209.061 50.1783 208.032 49.8265L207.709 50.7727ZM210.129 52.25L209.449 52.9833C210.045 53.5354 210.548 54.2927 210.936 55.2933L211.868 54.9318L212.8 54.5703C212.325 53.3437 211.668 52.313 210.809 51.5167L210.129 52.25ZM211.868 54.9318L210.936 55.2933C211.31 56.2581 211.516 57.4983 211.516 59.0455H212.516H213.516C213.516 57.335 213.29 55.8328 212.8 54.5703L211.868 54.9318ZM212.516 59.0455H211.516V60.1818H212.516H213.516V59.0455H212.516ZM212.516 60.1818V59.1818H199.061V60.1818V61.1818H212.516V60.1818ZM199.061 60.1818H200.061V57.8636H199.061H198.061V60.1818H199.061ZM199.061 57.8636V58.8636H209.788V57.8636V56.8636H199.061V57.8636ZM209.788 57.8636H210.788C210.788 56.7425 210.563 55.7045 210.088 54.7731L209.197 55.2273L208.307 55.6815C208.62 56.2955 208.788 57.0151 208.788 57.8636H209.788ZM209.197 55.2273L210.092 54.7801C209.625 53.8453 208.946 53.0948 208.066 52.5482L207.538 53.3977L207.011 54.2472C207.57 54.5946 207.998 55.0638 208.303 55.6745L209.197 55.2273ZM207.538 53.3977L208.07 52.5507C207.175 51.9892 206.144 51.7273 205.016 51.7273V52.7273V53.7273C205.827 53.7273 206.477 53.9123 207.007 54.2447L207.538 53.3977ZM205.016 52.7273V51.7273C203.774 51.7273 202.648 52.0382 201.681 52.6957L202.243 53.5227L202.805 54.3498C203.398 53.9467 204.12 53.7273 205.016 53.7273V52.7273ZM202.243 53.5227L201.683 52.6944C200.766 53.3147 200.056 54.1293 199.563 55.1242L200.459 55.5682L201.355 56.0122C201.695 55.3253 202.175 54.7762 202.803 54.351L202.243 53.5227ZM200.459 55.5682L199.563 55.1242C199.076 56.1067 198.834 57.1606 198.834 58.2727H199.834H200.834C200.834 57.4606 201.008 56.7115 201.355 56.0122L200.459 55.5682ZM199.834 58.2727H198.834V59.8182H199.834H200.834V58.2727H199.834ZM199.834 59.8182H198.834C198.834 61.2475 199.08 62.526 199.62 63.6147L200.516 63.1705L201.412 62.7262C201.042 61.9815 200.834 61.0252 200.834 59.8182H199.834ZM200.516 63.1705L199.624 63.6236C200.166 64.6903 200.935 65.5322 201.932 66.1138L202.436 65.25L202.94 64.3862C202.301 64.0132 201.789 63.4688 201.407 62.7173L200.516 63.1705ZM202.436 65.25L201.938 66.1173C202.929 66.6861 204.057 66.9545 205.288 66.9545V65.9545V64.9545C204.353 64.9545 203.579 64.7533 202.934 64.3827L202.436 65.25ZM205.288 65.9545V66.9545C206.086 66.9545 206.835 66.8431 207.525 66.6039L207.197 65.6591L206.87 64.7143C206.423 64.869 205.9 64.9545 205.288 64.9545V65.9545ZM207.197 65.6591L207.532 66.6014C208.234 66.3519 208.855 65.9759 209.38 65.4701L208.686 64.75L207.992 64.0299C207.684 64.3272 207.312 64.5572 206.863 64.7168L207.197 65.6591ZM208.686 64.75L209.387 65.4636C209.918 64.9417 210.315 64.3061 210.588 63.5784L209.652 63.2273L208.716 62.8761C208.534 63.3606 208.287 63.7401 207.985 64.0364L208.686 64.75ZM209.652 63.2273L209.382 64.1901L211.973 64.9173L212.243 63.9545L212.513 62.9918L209.922 62.2645L209.652 63.2273ZM212.243 63.9545L211.288 63.6581C211.062 64.3864 210.685 65.023 210.149 65.578L210.868 66.2727L211.587 66.9675C212.339 66.1891 212.879 65.2803 213.198 64.2509L212.243 63.9545ZM210.868 66.2727L210.153 65.5739C209.618 66.1216 208.945 66.5622 208.117 66.8872L208.482 67.8182L208.846 68.7492C209.912 68.3317 210.83 67.7421 211.583 66.9716L210.868 66.2727ZM208.482 67.8182L208.123 66.8846C207.308 67.1977 206.368 67.3636 205.288 67.3636V68.3636V69.3636C206.573 69.3636 207.761 69.1659 208.84 68.7517L208.482 67.8182Z" fill="#1B1B1B" mask="url(#path-3-outside-2_157_9)"/>
</g>
<defs>
<filter id="filter0_d_157_9" x="5.15909" y="6.40909" width="137.045" height="38.1364" filterUnits="userSpaceOnUse" color-interpolation-filters="sRGB">
<feFlood flood-opacity="0" result="BackgroundImageFix"/>
<feColorMatrix in="SourceAlpha" type="matrix" values="0 0 0 0 0 0 0 0 0 0 0 0 0 0 0 0 0 0 127 0" result="hardAlpha"/>
<feOffset dy="4"/>
<feGaussianBlur stdDeviation="1"/>
<feComposite in2="hardAlpha" operator="out"/>
<feColorMatrix type="matrix" values="0 0 0 0 0 0 0 0 0 0 0 0 0 0 0 0 0 0 0.6 0"/>
<feBlend mode="normal" in2="BackgroundImageFix" result="effect1_dropShadow_157_9"/>
<feBlend mode="normal" in="SourceGraphic" in2="effect1_dropShadow_157_9" result="shape"/>
</filter>
<filter id="filter1_d_157_9" x="111.678" y="43" width="103.838" height="38.9091" filterUnits="userSpaceOnUse" color-interpolation-filters="sRGB">
<feFlood flood-opacity="0" result="BackgroundImageFix"/>
<feColorMatrix in="SourceAlpha" type="matrix" values="0 0 0 0 0 0 0 0 0 0 0 0 0 0 0 0 0 0 127 0" result="hardAlpha"/>
<feOffset dy="4"/>
<feGaussianBlur stdDeviation="1"/>
<feComposite in2="hardAlpha" operator="out"/>
<feColorMatrix type="matrix" values="0 0 0 0 0 0 0 0 0 0 0 0 0 0 0 0 0 0 0.6 0"/>
<feBlend mode="normal" in2="BackgroundImageFix" result="effect1_dropShadow_157_9"/>
<feBlend mode="normal" in="SourceGraphic" in2="effect1_dropShadow_157_9" result="shape"/>
</filter>
</defs>
</svg>
